<svg xmlns="http://www.w3.org/2000/svg" xmlns:xlink="http://www.w3.org/1999/xlink" width="1434" zoomAndPan="magnify" viewBox="0 0 1075.5 1475.249995" height="1967" preserveAspectRatio="xMidYMid meet" version="1.0"><defs><g/><clipPath id="f0345fe13c"><path d="M 0.0234375 0 L 1074.976562 0 L 1074.976562 1474.5 L 0.0234375 1474.5 Z M 0.0234375 0 " clip-rule="nonzero"/></clipPath><clipPath id="afea150532"><path d="M 0.0234375 0 L 1074.496094 0 L 1074.496094 1473.925781 L 0.0234375 1473.925781 Z M 0.0234375 0 " clip-rule="nonzero"/></clipPath><clipPath id="92fad27af8"><path d="M 359 1081 L 673.839844 1081 L 673.839844 1318 L 359 1318 Z M 359 1081 " clip-rule="nonzero"/></clipPath><clipPath id="e03889c50f"><path d="M 485.558594 285.589844 L 547.027344 285.589844 L 547.027344 347.058594 L 485.558594 347.058594 Z M 485.558594 285.589844 " clip-rule="nonzero"/></clipPath></defs><g clip-path="url(#f0345fe13c)"><path fill="#ffffff" d="M 0.0234375 0 L 1074.976562 0 L 1074.976562 1474.5 L 0.0234375 1474.5 Z M 0.0234375 0 " fill-opacity="1" fill-rule="nonzero"/></g><g clip-path="url(#afea150532)"><path fill="#ffffff" d="M 0.0234375 0 L 1074.011719 0 L 1074.011719 1473.925781 L 0.0234375 1473.925781 Z M 0.0234375 0 " fill-opacity="1" fill-rule="nonzero"/></g><g clip-path="url(#92fad27af8)"><path fill="#000000" d="M 366.871094 1081.820312 C 366.355469 1081.820312 365.84375 1081.871094 365.335938 1081.972656 C 364.832031 1082.070312 364.339844 1082.222656 363.859375 1082.417969 C 363.382812 1082.617188 362.929688 1082.859375 362.5 1083.144531 C 362.070312 1083.433594 361.671875 1083.757812 361.308594 1084.125 C 360.941406 1084.492188 360.617188 1084.886719 360.328125 1085.316406 C 360.042969 1085.746094 359.796875 1086.199219 359.601562 1086.679688 C 359.402344 1087.15625 359.253906 1087.648438 359.152344 1088.15625 C 359.050781 1088.660156 359 1089.171875 359 1089.691406 L 359 1310.078125 C 359 1310.59375 359.050781 1311.105469 359.152344 1311.613281 C 359.253906 1312.121094 359.402344 1312.613281 359.601562 1313.089844 C 359.796875 1313.566406 360.042969 1314.023438 360.328125 1314.453125 C 360.617188 1314.882812 360.941406 1315.277344 361.308594 1315.644531 C 361.671875 1316.007812 362.070312 1316.335938 362.5 1316.621094 C 362.929688 1316.910156 363.382812 1317.152344 363.859375 1317.351562 C 364.339844 1317.546875 364.832031 1317.699219 365.335938 1317.796875 C 365.84375 1317.898438 366.355469 1317.949219 366.871094 1317.949219 L 665.972656 1317.949219 C 666.488281 1317.949219 667 1317.898438 667.507812 1317.796875 C 668.011719 1317.699219 668.503906 1317.546875 668.984375 1317.351562 C 669.460938 1317.152344 669.914062 1316.910156 670.34375 1316.621094 C 670.773438 1316.335938 671.171875 1316.007812 671.535156 1315.644531 C 671.902344 1315.277344 672.226562 1314.882812 672.515625 1314.453125 C 672.800781 1314.023438 673.042969 1313.566406 673.242188 1313.089844 C 673.441406 1312.613281 673.589844 1312.121094 673.691406 1311.613281 C 673.792969 1311.105469 673.839844 1310.59375 673.839844 1310.078125 L 673.839844 1089.691406 C 673.839844 1089.171875 673.792969 1088.660156 673.691406 1088.15625 C 673.589844 1087.648438 673.441406 1087.15625 673.242188 1086.679688 C 673.042969 1086.199219 672.800781 1085.746094 672.515625 1085.316406 C 672.226562 1084.886719 671.902344 1084.492188 671.535156 1084.125 C 671.171875 1083.757812 670.773438 1083.433594 670.34375 1083.144531 C 669.914062 1082.859375 669.460938 1082.617188 668.984375 1082.417969 C 668.503906 1082.222656 668.011719 1082.070312 667.507812 1081.972656 C 667 1081.871094 666.488281 1081.820312 665.972656 1081.820312 Z M 374.742188 1097.5625 L 581.992188 1097.5625 C 571.152344 1117.816406 564.246094 1138.5625 556.238281 1158.777344 C 560.335938 1160.230469 564.113281 1162.277344 567.570312 1164.914062 C 577.613281 1142.382812 585.75 1119.507812 598.066406 1097.5625 L 658.101562 1097.5625 L 658.101562 1302.207031 L 574.96875 1302.207031 C 569.496094 1286.96875 561.5 1265.71875 558.007812 1235.582031 C 552.609375 1237.660156 546.769531 1238.585938 540.988281 1238.273438 C 544.246094 1265.976562 551.269531 1286.660156 556.796875 1302.207031 L 374.742188 1302.207031 Z M 471.5 1100.199219 L 475.035156 1126.058594 L 481.59375 1119.40625 C 502.542969 1141.074219 512.148438 1153.699219 519.738281 1164.230469 C 523.246094 1161.664062 527.070312 1159.71875 531.210938 1158.394531 C 524.296875 1145.5 512.339844 1132.667969 490.644531 1110.222656 L 497.402344 1103.375 Z M 423.1875 1131.28125 L 386.722656 1154.964844 L 418.90625 1184.214844 L 420.164062 1168.660156 C 450.359375 1173.035156 477.929688 1181.765625 502.628906 1194.75 C 502.671875 1194.171875 502.699219 1193.597656 502.769531 1193.019531 C 503.421875 1186.273438 505.933594 1179.867188 509.769531 1174.359375 C 486.054688 1160.121094 455.710938 1150.25 421.90625 1147.222656 L 423.1875 1131.285156 Z M 591.097656 1139.449219 L 600.425781 1159.503906 L 574.234375 1171.222656 C 576.992188 1174.480469 579.15625 1178.089844 580.726562 1182.054688 C 582.378906 1187.265625 585.039062 1192.59375 583.925781 1198.207031 C 583.894531 1198.804688 583.824219 1199.394531 583.769531 1199.992188 L 613.136719 1186.808594 L 622.457031 1206.855469 L 650.503906 1152.816406 L 591.09375 1139.449219 Z M 543.460938 1165.175781 C 542.4375 1165.171875 541.414062 1165.214844 540.398438 1165.3125 C 522.742188 1166.960938 509.613281 1182.828125 511.261719 1200.484375 C 512.914062 1218.140625 528.761719 1231.269531 546.417969 1229.617188 C 562.890625 1228.078125 574.921875 1214.066406 575.191406 1197.875 C 576.015625 1195.410156 575.292969 1193.3125 574.558594 1191.167969 C 571.5 1176.300781 558.625 1165.234375 543.460938 1165.175781 Z M 542.003906 1182.441406 C 542.992188 1182.34375 543.980469 1182.339844 544.96875 1182.4375 C 545.957031 1182.53125 546.925781 1182.726562 547.875 1183.015625 C 548.828125 1183.304688 549.738281 1183.683594 550.613281 1184.15625 C 551.488281 1184.625 552.308594 1185.179688 553.074219 1185.8125 C 553.839844 1186.445312 554.53125 1187.148438 555.15625 1187.921875 C 555.78125 1188.695312 556.324219 1189.519531 556.785156 1190.402344 C 557.246094 1191.28125 557.613281 1192.199219 557.890625 1193.152344 C 558.167969 1194.105469 558.351562 1195.078125 558.433594 1196.070312 C 558.535156 1197.054688 558.539062 1198.042969 558.441406 1199.035156 C 558.347656 1200.023438 558.152344 1200.992188 557.863281 1201.941406 C 557.574219 1202.890625 557.195312 1203.804688 556.726562 1204.679688 C 556.253906 1205.554688 555.703125 1206.371094 555.066406 1207.136719 C 554.433594 1207.902344 553.730469 1208.597656 552.957031 1209.21875 C 552.1875 1209.84375 551.359375 1210.386719 550.480469 1210.847656 C 549.597656 1211.304688 548.683594 1211.675781 547.730469 1211.953125 C 546.773438 1212.230469 545.804688 1212.410156 544.8125 1212.492188 C 543.828125 1212.59375 542.839844 1212.597656 541.851562 1212.503906 C 540.863281 1212.40625 539.890625 1212.214844 538.941406 1211.925781 C 537.992188 1211.636719 537.078125 1211.257812 536.207031 1210.785156 C 535.332031 1210.316406 534.511719 1209.765625 533.746094 1209.132812 C 532.984375 1208.496094 532.289062 1207.792969 531.664062 1207.023438 C 531.039062 1206.25 530.496094 1205.425781 530.035156 1204.542969 C 529.578125 1203.664062 529.207031 1202.746094 528.929688 1201.792969 C 528.652344 1200.839844 528.472656 1199.871094 528.390625 1198.878906 C 528.289062 1197.890625 528.285156 1196.902344 528.378906 1195.914062 C 528.476562 1194.925781 528.667969 1193.957031 528.957031 1193.007812 C 529.246094 1192.054688 529.625 1191.144531 530.09375 1190.269531 C 530.566406 1189.394531 531.117188 1188.574219 531.75 1187.808594 C 532.382812 1187.042969 533.085938 1186.347656 533.859375 1185.722656 C 534.632812 1185.097656 535.457031 1184.554688 536.335938 1184.09375 C 537.21875 1183.632812 538.132812 1183.265625 539.085938 1182.988281 C 540.042969 1182.707031 541.011719 1182.527344 542.003906 1182.441406 Z M 504.714844 1210.496094 C 501.335938 1213.140625 497.878906 1215.679688 494.34375 1218.113281 C 487.324219 1222.910156 478.859375 1227.863281 469.628906 1231.519531 L 466.066406 1217.003906 L 438.9375 1251.007812 L 478.71875 1268.578125 L 474.796875 1252.566406 C 487.222656 1248.03125 497.945312 1241.703125 506.480469 1235.875 C 509.96875 1233.472656 513.386719 1230.976562 516.730469 1228.378906 C 513.984375 1225.96875 511.59375 1223.25 509.554688 1220.21875 C 507.519531 1217.1875 505.90625 1213.945312 504.714844 1210.496094 Z M 579.488281 1215.695312 C 577.769531 1219.289062 575.554688 1222.539062 572.835938 1225.449219 C 570.613281 1227.941406 568.09375 1230.089844 565.285156 1231.894531 L 613.4375 1279.351562 L 602.324219 1290.597656 L 645.507812 1295.910156 L 639.648438 1252.820312 L 628.539062 1264.070312 L 579.488281 1215.699219 Z M 579.488281 1215.695312 " fill-opacity="1" fill-rule="nonzero"/></g><path fill="#1c274c" d="M 451.078125 599.386719 C 451.078125 587.878906 460.261719 578.964844 471.664062 573.265625 C 483.402344 567.394531 499.226562 563.929688 516.398438 563.929688 C 533.570312 563.929688 549.390625 567.394531 561.128906 573.265625 C 572.53125 578.964844 581.714844 587.878906 581.714844 599.386719 L 581.714844 688.964844 C 581.714844 700.476562 572.53125 709.386719 561.128906 715.085938 C 549.390625 720.957031 533.570312 724.425781 516.398438 724.425781 C 499.226562 724.425781 483.402344 720.957031 471.664062 715.085938 C 460.261719 709.386719 451.078125 700.476562 451.078125 688.964844 Z M 462.277344 599.386719 C 462.277344 594.402344 466.460938 588.386719 476.671875 583.28125 C 486.550781 578.339844 500.585938 575.125 516.398438 575.125 C 532.207031 575.125 546.246094 578.339844 556.121094 583.28125 C 566.332031 588.386719 570.519531 594.402344 570.519531 599.386719 C 570.519531 604.371094 566.332031 610.386719 556.121094 615.492188 C 546.246094 620.433594 532.207031 623.648438 516.398438 623.648438 C 500.585938 623.648438 486.550781 620.433594 476.671875 615.492188 C 466.460938 610.386719 462.277344 604.371094 462.277344 599.386719 Z M 462.277344 688.964844 C 462.277344 693.949219 466.460938 699.964844 476.671875 705.074219 C 486.550781 710.011719 500.585938 713.226562 516.398438 713.226562 C 532.207031 713.226562 546.246094 710.011719 556.121094 705.074219 C 566.332031 699.964844 570.519531 693.949219 570.519531 688.964844 L 570.519531 664.386719 C 567.707031 666.628906 564.515625 668.605469 561.128906 670.296875 C 549.390625 676.167969 533.570312 679.636719 516.398438 679.636719 C 499.226562 679.636719 483.402344 676.167969 471.664062 670.296875 C 468.28125 668.605469 465.089844 666.628906 462.277344 664.386719 Z M 570.519531 619.597656 L 570.519531 644.175781 C 570.519531 649.160156 566.332031 655.175781 556.121094 660.28125 C 546.246094 665.222656 532.207031 668.4375 516.398438 668.4375 C 500.585938 668.4375 486.550781 665.222656 476.671875 660.28125 C 466.460938 655.175781 462.277344 649.160156 462.277344 644.175781 L 462.277344 619.597656 C 465.089844 621.839844 468.28125 623.816406 471.664062 625.507812 C 483.402344 631.378906 499.226562 634.84375 516.398438 634.84375 C 533.570312 634.84375 549.390625 631.378906 561.128906 625.507812 C 564.515625 623.816406 567.707031 621.839844 570.519531 619.597656 Z M 570.519531 619.597656 " fill-opacity="1" fill-rule="evenodd"/><path fill="#000000" d="M 790.585938 315.574219 C 790.585938 316.144531 790.558594 316.714844 790.5 317.28125 C 790.445312 317.851562 790.359375 318.414062 790.25 318.972656 C 790.140625 319.53125 790 320.085938 789.835938 320.632812 C 789.667969 321.175781 789.476562 321.714844 789.257812 322.242188 C 789.039062 322.765625 788.796875 323.28125 788.527344 323.785156 C 788.257812 324.289062 787.964844 324.777344 787.648438 325.25 C 787.332031 325.726562 786.992188 326.183594 786.632812 326.625 C 786.269531 327.066406 785.886719 327.488281 785.484375 327.890625 C 785.082031 328.292969 784.660156 328.675781 784.21875 329.039062 C 783.777344 329.398438 783.320312 329.738281 782.84375 330.054688 C 782.371094 330.375 781.882812 330.667969 781.378906 330.933594 C 780.875 331.203125 780.359375 331.449219 779.832031 331.664062 C 779.308594 331.882812 778.769531 332.074219 778.226562 332.242188 C 777.679688 332.40625 777.125 332.546875 776.566406 332.65625 C 776.007812 332.769531 775.445312 332.851562 774.875 332.90625 C 774.308594 332.964844 773.738281 332.992188 773.167969 332.992188 C 772.597656 332.992188 772.03125 332.964844 771.460938 332.90625 C 770.894531 332.851562 770.332031 332.769531 769.773438 332.65625 C 769.210938 332.546875 768.660156 332.40625 768.113281 332.242188 C 767.566406 332.074219 767.03125 331.882812 766.503906 331.664062 C 765.976562 331.449219 765.464844 331.203125 764.960938 330.933594 C 764.457031 330.664062 763.96875 330.375 763.492188 330.054688 C 763.019531 329.738281 762.5625 329.398438 762.121094 329.039062 C 761.679688 328.675781 761.257812 328.292969 760.855469 327.890625 C 760.453125 327.488281 760.070312 327.066406 759.707031 326.625 C 759.34375 326.183594 759.007812 325.726562 758.6875 325.25 C 758.371094 324.777344 758.078125 324.289062 757.8125 323.785156 C 757.542969 323.28125 757.296875 322.765625 757.078125 322.242188 C 756.863281 321.714844 756.667969 321.175781 756.503906 320.632812 C 756.339844 320.085938 756.199219 319.53125 756.089844 318.972656 C 755.976562 318.414062 755.894531 317.851562 755.839844 317.28125 C 755.78125 316.714844 755.753906 316.144531 755.753906 315.574219 C 755.753906 315.003906 755.78125 314.4375 755.839844 313.867188 C 755.894531 313.300781 755.976562 312.738281 756.089844 312.179688 C 756.199219 311.617188 756.339844 311.066406 756.503906 310.519531 C 756.667969 309.976562 756.863281 309.4375 757.078125 308.910156 C 757.296875 308.382812 757.542969 307.871094 757.8125 307.367188 C 758.078125 306.863281 758.371094 306.375 758.6875 305.902344 C 759.007812 305.425781 759.34375 304.96875 759.707031 304.527344 C 760.070312 304.085938 760.453125 303.664062 760.855469 303.261719 C 761.257812 302.859375 761.679688 302.476562 762.121094 302.113281 C 762.5625 301.753906 763.019531 301.414062 763.492188 301.097656 C 763.96875 300.777344 764.457031 300.484375 764.960938 300.21875 C 765.464844 299.949219 765.976562 299.703125 766.503906 299.488281 C 767.03125 299.269531 767.566406 299.078125 768.113281 298.910156 C 768.660156 298.746094 769.210938 298.605469 769.773438 298.496094 C 770.332031 298.382812 770.894531 298.300781 771.460938 298.246094 C 772.03125 298.1875 772.597656 298.160156 773.167969 298.160156 C 773.738281 298.160156 774.308594 298.1875 774.875 298.246094 C 775.445312 298.300781 776.007812 298.382812 776.566406 298.496094 C 777.125 298.605469 777.679688 298.746094 778.226562 298.910156 C 778.769531 299.078125 779.308594 299.269531 779.832031 299.488281 C 780.359375 299.703125 780.875 299.949219 781.378906 300.21875 C 781.882812 300.484375 782.371094 300.777344 782.84375 301.097656 C 783.320312 301.414062 783.777344 301.753906 784.21875 302.113281 C 784.660156 302.476562 785.082031 302.859375 785.484375 303.261719 C 785.886719 303.664062 786.269531 304.085938 786.632812 304.527344 C 786.992188 304.96875 787.332031 305.425781 787.648438 305.902344 C 787.964844 306.375 788.257812 306.863281 788.527344 307.367188 C 788.796875 307.871094 789.039062 308.382812 789.257812 308.910156 C 789.476562 309.4375 789.667969 309.976562 789.835938 310.519531 C 790 311.066406 790.140625 311.617188 790.25 312.179688 C 790.359375 312.738281 790.445312 313.300781 790.5 313.867188 C 790.558594 314.4375 790.585938 315.003906 790.585938 315.574219 Z M 790.585938 315.574219 " fill-opacity="1" fill-rule="nonzero"/><path fill="#000000" d="M 851.722656 252.660156 C 849.253906 252.660156 847.253906 250.660156 847.253906 248.195312 L 847.253906 241.492188 L 840.550781 241.492188 C 838.085938 241.492188 836.082031 239.492188 836.082031 237.023438 C 836.082031 234.558594 838.085938 232.558594 840.550781 232.558594 L 851.722656 232.558594 C 854.1875 232.558594 856.1875 234.558594 856.1875 237.023438 L 856.1875 248.195312 C 856.1875 250.664062 854.1875 252.660156 851.722656 252.660156 Z M 851.722656 252.660156 " fill-opacity="1" fill-rule="nonzero"/><path fill="#000000" d="M 821.300781 241.492188 L 802.046875 241.492188 C 799.582031 241.492188 797.582031 239.492188 797.582031 237.023438 C 797.582031 234.558594 799.582031 232.558594 802.046875 232.558594 L 821.300781 232.558594 C 823.765625 232.558594 825.769531 234.558594 825.769531 237.023438 C 825.769531 239.492188 823.765625 241.492188 821.300781 241.492188 Z M 821.300781 241.492188 " fill-opacity="1" fill-rule="nonzero"/><path fill="#000000" d="M 782.796875 241.492188 L 763.546875 241.492188 C 761.078125 241.492188 759.078125 239.492188 759.078125 237.023438 C 759.078125 234.558594 761.078125 232.558594 763.546875 232.558594 L 782.796875 232.558594 C 785.261719 232.558594 787.265625 234.558594 787.265625 237.023438 C 787.265625 239.492188 785.261719 241.492188 782.796875 241.492188 Z M 782.796875 241.492188 " fill-opacity="1" fill-rule="nonzero"/><path fill="#000000" d="M 744.292969 241.492188 L 725.042969 241.492188 C 722.578125 241.492188 720.574219 239.492188 720.574219 237.023438 C 720.574219 234.558594 722.578125 232.558594 725.042969 232.558594 L 744.292969 232.558594 C 746.761719 232.558594 748.761719 234.558594 748.761719 237.023438 C 748.761719 239.492188 746.761719 241.492188 744.292969 241.492188 Z M 744.292969 241.492188 " fill-opacity="1" fill-rule="nonzero"/><path fill="#000000" d="M 694.621094 252.660156 C 692.15625 252.660156 690.15625 250.660156 690.15625 248.195312 L 690.15625 237.023438 C 690.15625 234.558594 692.15625 232.558594 694.621094 232.558594 L 705.792969 232.558594 C 708.257812 232.558594 710.257812 234.558594 710.257812 237.023438 C 710.257812 239.492188 708.257812 241.492188 705.792969 241.492188 L 699.089844 241.492188 L 699.089844 248.195312 C 699.089844 250.664062 697.089844 252.660156 694.621094 252.660156 Z M 694.621094 252.660156 " fill-opacity="1" fill-rule="nonzero"/><path fill="#000000" d="M 694.621094 368.171875 C 692.15625 368.171875 690.15625 366.167969 690.15625 363.703125 L 690.15625 344.449219 C 690.15625 341.984375 692.15625 339.984375 694.621094 339.984375 C 697.089844 339.984375 699.089844 341.984375 699.089844 344.449219 L 699.089844 363.703125 C 699.089844 366.171875 697.089844 368.171875 694.621094 368.171875 Z M 694.621094 368.171875 " fill-opacity="1" fill-rule="nonzero"/><path fill="#000000" d="M 694.621094 329.667969 C 692.15625 329.667969 690.15625 327.664062 690.15625 325.199219 L 690.15625 305.949219 C 690.15625 303.480469 692.15625 301.480469 694.621094 301.480469 C 697.089844 301.480469 699.089844 303.480469 699.089844 305.949219 L 699.089844 325.199219 C 699.089844 327.667969 697.089844 329.667969 694.621094 329.667969 Z M 694.621094 329.667969 " fill-opacity="1" fill-rule="nonzero"/><path fill="#000000" d="M 694.621094 291.167969 C 692.15625 291.167969 690.15625 289.164062 690.15625 286.699219 L 690.15625 267.449219 C 690.15625 264.980469 692.15625 262.980469 694.621094 262.980469 C 697.089844 262.980469 699.089844 264.980469 699.089844 267.449219 L 699.089844 286.699219 C 699.089844 289.164062 697.089844 291.167969 694.621094 291.167969 Z M 694.621094 291.167969 " fill-opacity="1" fill-rule="nonzero"/><path fill="#000000" d="M 705.792969 398.59375 L 694.621094 398.59375 C 692.15625 398.59375 690.15625 396.589844 690.15625 394.125 L 690.15625 382.957031 C 690.15625 380.488281 692.15625 378.488281 694.621094 378.488281 C 697.089844 378.488281 699.089844 380.488281 699.089844 382.957031 L 699.089844 389.65625 L 705.792969 389.65625 C 708.257812 389.65625 710.257812 391.660156 710.257812 394.125 C 710.257812 396.589844 708.257812 398.59375 705.792969 398.59375 Z M 705.792969 398.59375 " fill-opacity="1" fill-rule="nonzero"/><path fill="#000000" d="M 821.296875 398.59375 L 802.046875 398.59375 C 799.582031 398.59375 797.582031 396.589844 797.582031 394.125 C 797.582031 391.660156 799.582031 389.65625 802.046875 389.65625 L 821.296875 389.65625 C 823.765625 389.65625 825.765625 391.660156 825.765625 394.125 C 825.765625 396.589844 823.765625 398.59375 821.296875 398.59375 Z M 821.296875 398.59375 " fill-opacity="1" fill-rule="nonzero"/><path fill="#000000" d="M 782.796875 398.59375 L 763.542969 398.59375 C 761.078125 398.59375 759.074219 396.589844 759.074219 394.125 C 759.074219 391.660156 761.078125 389.65625 763.542969 389.65625 L 782.796875 389.65625 C 785.261719 389.65625 787.261719 391.660156 787.261719 394.125 C 787.261719 396.589844 785.261719 398.59375 782.796875 398.59375 Z M 782.796875 398.59375 " fill-opacity="1" fill-rule="nonzero"/><path fill="#000000" d="M 744.292969 398.59375 L 725.039062 398.59375 C 722.574219 398.59375 720.574219 396.589844 720.574219 394.125 C 720.574219 391.660156 722.574219 389.65625 725.039062 389.65625 L 744.292969 389.65625 C 746.757812 389.65625 748.761719 391.660156 748.761719 394.125 C 748.761719 396.589844 746.761719 398.59375 744.292969 398.59375 Z M 744.292969 398.59375 " fill-opacity="1" fill-rule="nonzero"/><path fill="#000000" d="M 851.722656 398.59375 L 840.550781 398.59375 C 838.085938 398.59375 836.082031 396.589844 836.082031 394.125 C 836.082031 391.660156 838.085938 389.65625 840.550781 389.65625 L 847.253906 389.65625 L 847.253906 382.957031 C 847.253906 380.488281 849.253906 378.488281 851.722656 378.488281 C 854.1875 378.488281 856.1875 380.488281 856.1875 382.957031 L 856.1875 394.125 C 856.1875 396.589844 854.1875 398.59375 851.722656 398.59375 Z M 851.722656 398.59375 " fill-opacity="1" fill-rule="nonzero"/><path fill="#000000" d="M 851.722656 368.171875 C 849.253906 368.171875 847.253906 366.167969 847.253906 363.703125 L 847.253906 344.449219 C 847.253906 341.984375 849.253906 339.984375 851.722656 339.984375 C 854.1875 339.984375 856.1875 341.984375 856.1875 344.449219 L 856.1875 363.703125 C 856.1875 366.171875 854.1875 368.171875 851.722656 368.171875 Z M 851.722656 368.171875 " fill-opacity="1" fill-rule="nonzero"/><path fill="#000000" d="M 851.722656 329.667969 C 849.253906 329.667969 847.253906 327.664062 847.253906 325.199219 L 847.253906 305.949219 C 847.253906 303.480469 849.253906 301.480469 851.722656 301.480469 C 854.1875 301.480469 856.1875 303.480469 856.1875 305.949219 L 856.1875 325.199219 C 856.1875 327.667969 854.1875 329.667969 851.722656 329.667969 Z M 851.722656 329.667969 " fill-opacity="1" fill-rule="nonzero"/><path fill="#000000" d="M 851.722656 291.167969 C 849.253906 291.167969 847.253906 289.164062 847.253906 286.699219 L 847.253906 267.449219 C 847.253906 264.980469 849.253906 262.980469 851.722656 262.980469 C 854.1875 262.980469 856.1875 264.980469 856.1875 267.449219 L 856.1875 286.699219 C 856.1875 289.164062 854.1875 291.167969 851.722656 291.167969 Z M 851.722656 291.167969 " fill-opacity="1" fill-rule="nonzero"/><path fill="#000000" d="M 215.082031 329.285156 L 241.132812 329.285156 L 241.132812 342.308594 L 215.082031 342.308594 Z M 215.082031 329.285156 " fill-opacity="1" fill-rule="nonzero"/><path fill="#000000" d="M 254.15625 329.285156 L 280.207031 329.285156 L 280.207031 342.308594 L 254.15625 342.308594 Z M 254.15625 329.285156 " fill-opacity="1" fill-rule="nonzero"/><path fill="#000000" d="M 215.082031 303.234375 L 241.132812 303.234375 L 241.132812 316.261719 L 215.082031 316.261719 Z M 215.082031 303.234375 " fill-opacity="1" fill-rule="nonzero"/><path fill="#000000" d="M 254.15625 355.335938 L 280.207031 355.335938 L 280.207031 368.359375 L 254.15625 368.359375 Z M 254.15625 355.335938 " fill-opacity="1" fill-rule="nonzero"/><path fill="#000000" d="M 293.230469 303.234375 L 319.28125 303.234375 L 319.28125 316.261719 L 293.230469 316.261719 Z M 293.230469 303.234375 " fill-opacity="1" fill-rule="nonzero"/><path fill="#000000" d="M 293.230469 355.335938 L 319.28125 355.335938 L 319.28125 368.359375 L 293.230469 368.359375 Z M 293.230469 355.335938 " fill-opacity="1" fill-rule="nonzero"/><path fill="#000000" d="M 338.816406 231.601562 L 195.546875 231.601562 C 194.691406 231.601562 193.84375 231.6875 193.007812 231.851562 C 192.167969 232.019531 191.355469 232.269531 190.566406 232.597656 C 189.777344 232.921875 189.027344 233.324219 188.316406 233.800781 C 187.605469 234.277344 186.945312 234.816406 186.34375 235.417969 C 185.738281 236.023438 185.199219 236.683594 184.722656 237.394531 C 184.246094 238.101562 183.847656 238.851562 183.519531 239.644531 C 183.191406 240.433594 182.941406 241.246094 182.773438 242.085938 C 182.609375 242.921875 182.523438 243.769531 182.523438 244.625 L 182.523438 387.894531 C 182.523438 388.75 182.609375 389.597656 182.773438 390.4375 C 182.941406 391.273438 183.191406 392.089844 183.519531 392.878906 C 183.847656 393.667969 184.246094 394.417969 184.722656 395.128906 C 185.199219 395.839844 185.738281 396.496094 186.34375 397.101562 C 186.945312 397.707031 187.605469 398.246094 188.316406 398.71875 C 189.027344 399.195312 189.777344 399.597656 190.566406 399.925781 C 191.355469 400.253906 192.167969 400.5 193.007812 400.667969 C 193.84375 400.835938 194.691406 400.917969 195.546875 400.921875 L 338.816406 400.921875 C 339.671875 400.917969 340.519531 400.835938 341.359375 400.667969 C 342.195312 400.5 343.011719 400.253906 343.800781 399.925781 C 344.589844 399.597656 345.339844 399.195312 346.050781 398.71875 C 346.761719 398.246094 347.417969 397.707031 348.023438 397.101562 C 348.628906 396.496094 349.167969 395.839844 349.640625 395.128906 C 350.117188 394.417969 350.519531 393.667969 350.847656 392.878906 C 351.175781 392.089844 351.421875 391.273438 351.589844 390.4375 C 351.757812 389.597656 351.839844 388.75 351.84375 387.894531 L 351.84375 244.625 C 351.839844 243.769531 351.757812 242.921875 351.589844 242.085938 C 351.421875 241.246094 351.175781 240.433594 350.847656 239.644531 C 350.519531 238.851562 350.117188 238.101562 349.640625 237.394531 C 349.167969 236.683594 348.628906 236.023438 348.023438 235.417969 C 347.417969 234.816406 346.761719 234.277344 346.050781 233.800781 C 345.339844 233.324219 344.589844 232.921875 343.800781 232.597656 C 343.011719 232.269531 342.195312 232.019531 341.359375 231.851562 C 340.519531 231.6875 339.671875 231.601562 338.816406 231.601562 Z M 338.816406 244.625 L 338.816406 270.675781 L 195.546875 270.675781 L 195.546875 244.625 Z M 195.546875 387.894531 L 195.546875 283.699219 L 338.816406 283.699219 L 338.816406 387.894531 Z M 195.546875 387.894531 " fill-opacity="1" fill-rule="nonzero"/><path stroke-linecap="butt" transform="matrix(0.453534, 0.596855, -0.596855, 0.453534, 348.292114, 419.26017)" fill="none" stroke-linejoin="miter" d="M -0.000907984 3.001906 L 221.472263 3.002294 " stroke="#000000" stroke-width="6" stroke-opacity="1" stroke-miterlimit="4"/><path stroke-linecap="round" transform="matrix(0.453534, 0.596855, -0.596855, 0.453534, 348.292114, 419.26017)" fill="none" stroke-linejoin="round" d="M 209.470425 -5.99977 L 221.472263 3.002294 L 209.471877 11.999325 " stroke="#000000" stroke-width="6" stroke-opacity="1" stroke-miterlimit="4"/><path stroke-linecap="butt" transform="matrix(-0.461927, 0.590383, -0.590383, -0.461927, 687.140654, 429.39816)" fill="none" stroke-linejoin="miter" d="M -0.00199823 2.998874 L 211.415179 3.000296 " stroke="#000000" stroke-width="6" stroke-opacity="1" stroke-miterlimit="4"/><path stroke-linecap="round" transform="matrix(-0.461927, 0.590383, -0.590383, -0.461927, 687.140654, 429.39816)" fill="none" stroke-linejoin="round" d="M 199.417627 -5.999755 L 211.415179 3.000296 L 199.414267 11.999673 " stroke="#000000" stroke-width="6" stroke-opacity="1" stroke-miterlimit="4"/><g clip-path="url(#e03889c50f)"><path fill="#000000" d="M 516.292969 347.058594 C 515.757812 347.058594 515.320312 346.625 515.320312 346.085938 L 515.320312 317.300781 L 486.535156 317.300781 C 485.996094 317.300781 485.558594 316.863281 485.558594 316.324219 C 485.558594 315.789062 485.996094 315.351562 486.535156 315.351562 L 515.320312 315.351562 L 515.320312 286.566406 C 515.320312 286.027344 515.757812 285.589844 516.292969 285.589844 C 516.832031 285.589844 517.269531 286.027344 517.269531 286.566406 L 517.269531 315.351562 L 546.054688 315.351562 C 546.59375 315.351562 547.027344 315.789062 547.027344 316.324219 C 547.027344 316.863281 546.59375 317.300781 546.054688 317.300781 L 517.269531 317.300781 L 517.269531 346.085938 C 517.269531 346.625 516.832031 347.058594 516.292969 347.058594 Z M 516.292969 347.058594 " fill-opacity="1" fill-rule="nonzero"/></g><path stroke-linecap="butt" transform="matrix(0, 0.749619, -0.749619, 0, 518.553961, 875.047129)" fill="none" stroke-linejoin="miter" d="M -0.000338487 3.000557 L 157.277503 3.000557 " stroke="#000000" stroke-width="6" stroke-opacity="1" stroke-miterlimit="4"/><path stroke-linecap="round" transform="matrix(0, 0.749619, -0.749619, 0, 518.553961, 875.047129)" fill="none" stroke-linejoin="round" d="M 145.281824 -5.998808 L 157.277503 3.000557 L 145.281824 11.999922 " stroke="#000000" stroke-width="6" stroke-opacity="1" stroke-miterlimit="4"/><g fill="#223d3c" fill-opacity="1"><g transform="translate(215.10028, 153.548135)"><g><path d="M 13.890625 0 L 10.375 0 L 10.375 -25.9375 L 0.53125 -25.9375 L 0.53125 -29.09375 L 23.765625 -29.09375 L 23.765625 -25.9375 L 13.890625 -25.9375 Z M 13.890625 0 "/></g></g></g><g fill="#223d3c" fill-opacity="1"><g transform="translate(239.392478, 153.548135)"><g><path d="M 5.953125 0 L 2.703125 0 L 2.703125 -21.09375 L 5.953125 -21.09375 L 5.953125 -18.1875 C 6.921875 -19.382812 7.957031 -20.226562 9.0625 -20.71875 C 10.164062 -21.21875 11.429688 -21.46875 12.859375 -21.46875 L 13 -21.46875 L 13 -18.234375 L 11.90625 -18.234375 C 10.195312 -18.234375 8.832031 -17.722656 7.8125 -16.703125 C 7.207031 -16.117188 6.742188 -15.367188 6.421875 -14.453125 C 6.109375 -13.535156 5.953125 -12.414062 5.953125 -11.09375 Z M 5.953125 0 "/></g></g></g><g fill="#223d3c" fill-opacity="1"><g transform="translate(253.235609, 153.548135)"><g><path d="M 8.703125 0.375 C 6.585938 0.375 4.910156 -0.15625 3.671875 -1.21875 C 2.441406 -2.289062 1.828125 -3.753906 1.828125 -5.609375 C 1.828125 -7.441406 2.515625 -8.890625 3.890625 -9.953125 C 5.003906 -10.847656 6.617188 -11.507812 8.734375 -11.9375 L 16.25 -13.390625 C 16.25 -15.035156 15.816406 -16.289062 14.953125 -17.15625 C 13.984375 -18.125 12.6875 -18.609375 11.0625 -18.609375 C 9.757812 -18.609375 8.628906 -18.265625 7.671875 -17.578125 C 6.722656 -16.890625 6.125 -15.953125 5.875 -14.765625 L 2.625 -14.765625 C 2.882812 -16.234375 3.425781 -17.460938 4.25 -18.453125 C 5.082031 -19.453125 6.09375 -20.203125 7.28125 -20.703125 C 8.476562 -21.210938 9.75 -21.46875 11.09375 -21.46875 C 12.3125 -21.46875 13.460938 -21.289062 14.546875 -20.9375 C 15.628906 -20.582031 16.539062 -20.035156 17.28125 -19.296875 C 18.019531 -18.585938 18.539062 -17.785156 18.84375 -16.890625 C 19.144531 -16.003906 19.328125 -15.160156 19.390625 -14.359375 C 19.453125 -13.554688 19.484375 -12.914062 19.484375 -12.4375 L 19.484375 0 L 16.25 0 L 16.25 -3.3125 C 15.507812 -2.25 14.65625 -1.425781 13.6875 -0.84375 C 12.976562 -0.40625 12.207031 -0.09375 11.375 0.09375 C 10.550781 0.28125 9.660156 0.375 8.703125 0.375 Z M 9.078125 -2.484375 C 10.367188 -2.484375 11.488281 -2.722656 12.4375 -3.203125 C 13.9375 -3.992188 14.953125 -5.007812 15.484375 -6.25 C 16.015625 -7.5 16.28125 -9 16.28125 -10.75 L 9.421875 -9.375 C 7.847656 -9.070312 6.691406 -8.578125 5.953125 -7.890625 C 5.367188 -7.304688 5.078125 -6.570312 5.078125 -5.6875 C 5.078125 -4.71875 5.4375 -3.941406 6.15625 -3.359375 C 6.882812 -2.773438 7.859375 -2.484375 9.078125 -2.484375 Z M 9.078125 -2.484375 "/></g></g></g><g fill="#223d3c" fill-opacity="1"><g transform="translate(275.201562, 153.548135)"><g><path d="M 11.296875 0.375 C 9.410156 0.375 7.757812 -0.0859375 6.34375 -1.015625 C 4.9375 -1.941406 3.84375 -3.222656 3.0625 -4.859375 C 2.289062 -6.503906 1.90625 -8.394531 1.90625 -10.53125 C 1.90625 -12.6875 2.289062 -14.582031 3.0625 -16.21875 C 3.84375 -17.863281 4.9375 -19.148438 6.34375 -20.078125 C 7.757812 -21.003906 9.410156 -21.46875 11.296875 -21.46875 C 12.710938 -21.46875 13.941406 -21.210938 14.984375 -20.703125 C 16.023438 -20.203125 17.09375 -19.238281 18.1875 -17.8125 L 18.1875 -29.09375 L 21.4375 -29.09375 L 21.4375 0 L 18.1875 0 L 18.1875 -3.28125 C 17.125 -1.90625 16.070312 -0.953125 15.03125 -0.421875 C 13.988281 0.109375 12.742188 0.375 11.296875 0.375 Z M 11.59375 -2.484375 C 12.914062 -2.484375 14.078125 -2.832031 15.078125 -3.53125 C 16.085938 -4.226562 16.878906 -5.179688 17.453125 -6.390625 C 18.023438 -7.597656 18.3125 -8.976562 18.3125 -10.53125 C 18.3125 -12.101562 18.023438 -13.492188 17.453125 -14.703125 C 16.878906 -15.910156 16.085938 -16.863281 15.078125 -17.5625 C 14.078125 -18.257812 12.914062 -18.609375 11.59375 -18.609375 C 10.269531 -18.609375 9.125 -18.253906 8.15625 -17.546875 C 7.195312 -16.835938 6.457031 -15.878906 5.9375 -14.671875 C 5.414062 -13.460938 5.15625 -12.082031 5.15625 -10.53125 C 5.15625 -9 5.414062 -7.628906 5.9375 -6.421875 C 6.457031 -5.210938 7.195312 -4.253906 8.15625 -3.546875 C 9.125 -2.835938 10.269531 -2.484375 11.59375 -2.484375 Z M 11.59375 -2.484375 "/></g></g></g><g fill="#223d3c" fill-opacity="1"><g transform="translate(299.37938, 153.548135)"><g><path d="M 12.09375 0.375 C 10.082031 0.375 8.300781 -0.0976562 6.75 -1.046875 C 5.195312 -2.003906 3.988281 -3.300781 3.125 -4.9375 C 2.257812 -6.582031 1.828125 -8.429688 1.828125 -10.484375 C 1.828125 -12.390625 2.222656 -14.179688 3.015625 -15.859375 C 3.804688 -17.546875 4.960938 -18.898438 6.484375 -19.921875 C 8.003906 -20.953125 9.847656 -21.46875 12.015625 -21.46875 C 13.796875 -21.46875 15.453125 -21.070312 16.984375 -20.28125 C 18.523438 -19.5 19.78125 -18.332031 20.75 -16.78125 C 21.71875 -15.226562 22.203125 -13.320312 22.203125 -11.0625 L 22.203125 -9.921875 L 5.03125 -9.921875 C 5.082031 -9.179688 5.222656 -8.476562 5.453125 -7.8125 C 5.984375 -6.1875 6.832031 -4.890625 8 -3.921875 C 9.175781 -2.960938 10.523438 -2.484375 12.046875 -2.484375 C 13.648438 -2.484375 14.984375 -2.90625 16.046875 -3.75 C 17.117188 -4.601562 17.882812 -5.613281 18.34375 -6.78125 L 21.8125 -6.78125 C 21.382812 -5.46875 20.738281 -4.269531 19.875 -3.1875 C 19.007812 -2.101562 17.929688 -1.238281 16.640625 -0.59375 C 15.359375 0.0507812 13.84375 0.375 12.09375 0.375 Z M 5.34375 -12.78125 L 18.734375 -12.78125 C 18.703125 -13.132812 18.644531 -13.488281 18.5625 -13.84375 C 18.488281 -14.195312 18.390625 -14.53125 18.265625 -14.84375 C 17.710938 -16.0625 16.878906 -16.992188 15.765625 -17.640625 C 14.660156 -18.285156 13.4375 -18.609375 12.09375 -18.609375 C 10.695312 -18.609375 9.46875 -18.273438 8.40625 -17.609375 C 7.351562 -16.953125 6.535156 -16.03125 5.953125 -14.84375 C 5.796875 -14.507812 5.664062 -14.160156 5.5625 -13.796875 C 5.46875 -13.441406 5.394531 -13.101562 5.34375 -12.78125 Z M 5.34375 -12.78125 "/></g></g></g><g fill="#223d3c" fill-opacity="1"><g transform="translate(228.283757, 205.984113)"><g><path d="M 11.296875 0.375 C 9.410156 0.375 7.757812 -0.0859375 6.34375 -1.015625 C 4.9375 -1.941406 3.84375 -3.222656 3.0625 -4.859375 C 2.289062 -6.503906 1.90625 -8.394531 1.90625 -10.53125 C 1.90625 -12.6875 2.289062 -14.582031 3.0625 -16.21875 C 3.84375 -17.863281 4.9375 -19.148438 6.34375 -20.078125 C 7.757812 -21.003906 9.410156 -21.46875 11.296875 -21.46875 C 12.710938 -21.46875 13.941406 -21.210938 14.984375 -20.703125 C 16.023438 -20.203125 17.09375 -19.238281 18.1875 -17.8125 L 18.1875 -29.09375 L 21.4375 -29.09375 L 21.4375 0 L 18.1875 0 L 18.1875 -3.28125 C 17.125 -1.90625 16.070312 -0.953125 15.03125 -0.421875 C 13.988281 0.109375 12.742188 0.375 11.296875 0.375 Z M 11.59375 -2.484375 C 12.914062 -2.484375 14.078125 -2.832031 15.078125 -3.53125 C 16.085938 -4.226562 16.878906 -5.179688 17.453125 -6.390625 C 18.023438 -7.597656 18.3125 -8.976562 18.3125 -10.53125 C 18.3125 -12.101562 18.023438 -13.492188 17.453125 -14.703125 C 16.878906 -15.910156 16.085938 -16.863281 15.078125 -17.5625 C 14.078125 -18.257812 12.914062 -18.609375 11.59375 -18.609375 C 10.269531 -18.609375 9.125 -18.253906 8.15625 -17.546875 C 7.195312 -16.835938 6.457031 -15.878906 5.9375 -14.671875 C 5.414062 -13.460938 5.15625 -12.082031 5.15625 -10.53125 C 5.15625 -9 5.414062 -7.628906 5.9375 -6.421875 C 6.457031 -5.210938 7.195312 -4.253906 8.15625 -3.546875 C 9.125 -2.835938 10.269531 -2.484375 11.59375 -2.484375 Z M 11.59375 -2.484375 "/></g></g></g><g fill="#223d3c" fill-opacity="1"><g transform="translate(252.461576, 205.984113)"><g><path d="M 8.703125 0.375 C 6.585938 0.375 4.910156 -0.15625 3.671875 -1.21875 C 2.441406 -2.289062 1.828125 -3.753906 1.828125 -5.609375 C 1.828125 -7.441406 2.515625 -8.890625 3.890625 -9.953125 C 5.003906 -10.847656 6.617188 -11.507812 8.734375 -11.9375 L 16.25 -13.390625 C 16.25 -15.035156 15.816406 -16.289062 14.953125 -17.15625 C 13.984375 -18.125 12.6875 -18.609375 11.0625 -18.609375 C 9.757812 -18.609375 8.628906 -18.265625 7.671875 -17.578125 C 6.722656 -16.890625 6.125 -15.953125 5.875 -14.765625 L 2.625 -14.765625 C 2.882812 -16.234375 3.425781 -17.460938 4.25 -18.453125 C 5.082031 -19.453125 6.09375 -20.203125 7.28125 -20.703125 C 8.476562 -21.210938 9.75 -21.46875 11.09375 -21.46875 C 12.3125 -21.46875 13.460938 -21.289062 14.546875 -20.9375 C 15.628906 -20.582031 16.539062 -20.035156 17.28125 -19.296875 C 18.019531 -18.585938 18.539062 -17.785156 18.84375 -16.890625 C 19.144531 -16.003906 19.328125 -15.160156 19.390625 -14.359375 C 19.453125 -13.554688 19.484375 -12.914062 19.484375 -12.4375 L 19.484375 0 L 16.25 0 L 16.25 -3.3125 C 15.507812 -2.25 14.65625 -1.425781 13.6875 -0.84375 C 12.976562 -0.40625 12.207031 -0.09375 11.375 0.09375 C 10.550781 0.28125 9.660156 0.375 8.703125 0.375 Z M 9.078125 -2.484375 C 10.367188 -2.484375 11.488281 -2.722656 12.4375 -3.203125 C 13.9375 -3.992188 14.953125 -5.007812 15.484375 -6.25 C 16.015625 -7.5 16.28125 -9 16.28125 -10.75 L 9.421875 -9.375 C 7.847656 -9.070312 6.691406 -8.578125 5.953125 -7.890625 C 5.367188 -7.304688 5.078125 -6.570312 5.078125 -5.6875 C 5.078125 -4.71875 5.4375 -3.941406 6.15625 -3.359375 C 6.882812 -2.773438 7.859375 -2.484375 9.078125 -2.484375 Z M 9.078125 -2.484375 "/></g></g></g><g fill="#223d3c" fill-opacity="1"><g transform="translate(274.427528, 205.984113)"><g><path d="M 12.359375 0 L 9.421875 0 C 8.378906 0 7.484375 -0.144531 6.734375 -0.4375 C 5.984375 -0.726562 5.410156 -1.257812 5.015625 -2.03125 C 4.617188 -2.8125 4.421875 -3.898438 4.421875 -5.296875 L 4.421875 -18.234375 L 1.03125 -18.234375 L 1.03125 -21.09375 L 4.421875 -21.09375 L 4.421875 -29.09375 L 7.671875 -29.09375 L 7.671875 -21.09375 L 12.390625 -21.09375 L 12.390625 -18.234375 L 7.671875 -18.234375 L 7.671875 -5.953125 C 7.671875 -5.335938 7.710938 -4.796875 7.796875 -4.328125 C 7.890625 -3.859375 8.113281 -3.492188 8.46875 -3.234375 C 8.820312 -2.984375 9.394531 -2.859375 10.1875 -2.859375 L 12.359375 -2.859375 Z M 12.359375 0 "/></g></g></g><g fill="#223d3c" fill-opacity="1"><g transform="translate(288.194395, 205.984113)"><g><path d="M 8.703125 0.375 C 6.585938 0.375 4.910156 -0.15625 3.671875 -1.21875 C 2.441406 -2.289062 1.828125 -3.753906 1.828125 -5.609375 C 1.828125 -7.441406 2.515625 -8.890625 3.890625 -9.953125 C 5.003906 -10.847656 6.617188 -11.507812 8.734375 -11.9375 L 16.25 -13.390625 C 16.25 -15.035156 15.816406 -16.289062 14.953125 -17.15625 C 13.984375 -18.125 12.6875 -18.609375 11.0625 -18.609375 C 9.757812 -18.609375 8.628906 -18.265625 7.671875 -17.578125 C 6.722656 -16.890625 6.125 -15.953125 5.875 -14.765625 L 2.625 -14.765625 C 2.882812 -16.234375 3.425781 -17.460938 4.25 -18.453125 C 5.082031 -19.453125 6.09375 -20.203125 7.28125 -20.703125 C 8.476562 -21.210938 9.75 -21.46875 11.09375 -21.46875 C 12.3125 -21.46875 13.460938 -21.289062 14.546875 -20.9375 C 15.628906 -20.582031 16.539062 -20.035156 17.28125 -19.296875 C 18.019531 -18.585938 18.539062 -17.785156 18.84375 -16.890625 C 19.144531 -16.003906 19.328125 -15.160156 19.390625 -14.359375 C 19.453125 -13.554688 19.484375 -12.914062 19.484375 -12.4375 L 19.484375 0 L 16.25 0 L 16.25 -3.3125 C 15.507812 -2.25 14.65625 -1.425781 13.6875 -0.84375 C 12.976562 -0.40625 12.207031 -0.09375 11.375 0.09375 C 10.550781 0.28125 9.660156 0.375 8.703125 0.375 Z M 9.078125 -2.484375 C 10.367188 -2.484375 11.488281 -2.722656 12.4375 -3.203125 C 13.9375 -3.992188 14.953125 -5.007812 15.484375 -6.25 C 16.015625 -7.5 16.28125 -9 16.28125 -10.75 L 9.421875 -9.375 C 7.847656 -9.070312 6.691406 -8.578125 5.953125 -7.890625 C 5.367188 -7.304688 5.078125 -6.570312 5.078125 -5.6875 C 5.078125 -4.71875 5.4375 -3.941406 6.15625 -3.359375 C 6.882812 -2.773438 7.859375 -2.484375 9.078125 -2.484375 Z M 9.078125 -2.484375 "/></g></g></g><g fill="#223d3c" fill-opacity="1"><g transform="translate(702.006986, 153.548135)"><g><path d="M 15.328125 0.375 C 13.046875 0.375 11.054688 -0.0195312 9.359375 -0.8125 C 7.671875 -1.613281 6.273438 -2.710938 5.171875 -4.109375 C 4.066406 -5.515625 3.242188 -7.113281 2.703125 -8.90625 C 2.171875 -10.695312 1.90625 -12.582031 1.90625 -14.5625 C 1.90625 -16.550781 2.171875 -18.4375 2.703125 -20.21875 C 3.242188 -22 4.066406 -23.585938 5.171875 -24.984375 C 6.273438 -26.378906 7.671875 -27.476562 9.359375 -28.28125 C 11.054688 -29.082031 13.046875 -29.484375 15.328125 -29.484375 C 17.492188 -29.484375 19.394531 -29.125 21.03125 -28.40625 C 22.675781 -27.695312 24.003906 -26.707031 25.015625 -25.4375 C 26.035156 -24.164062 26.6875 -22.703125 26.96875 -21.046875 L 23.15625 -21.046875 C 22.800781 -22.679688 21.921875 -23.972656 20.515625 -24.921875 C 19.117188 -25.878906 17.363281 -26.359375 15.25 -26.359375 C 13.09375 -26.359375 11.28125 -25.847656 9.8125 -24.828125 C 8.351562 -23.804688 7.253906 -22.40625 6.515625 -20.625 C 5.785156 -18.851562 5.421875 -16.832031 5.421875 -14.5625 C 5.421875 -12.300781 5.785156 -10.273438 6.515625 -8.484375 C 7.253906 -6.691406 8.351562 -5.285156 9.8125 -4.265625 C 11.28125 -3.253906 13.09375 -2.75 15.25 -2.75 C 17.363281 -2.75 19.117188 -3.253906 20.515625 -4.265625 C 21.921875 -5.285156 22.800781 -6.800781 23.15625 -8.8125 L 26.96875 -8.8125 C 26.507812 -5.988281 25.269531 -3.75 23.25 -2.09375 C 21.226562 -0.445312 18.585938 0.375 15.328125 0.375 Z M 15.328125 0.375 "/></g></g></g><g fill="#223d3c" fill-opacity="1"><g transform="translate(730.5322, 153.548135)"><g><path d="M 12.125 0.375 C 10.113281 0.375 8.332031 -0.09375 6.78125 -1.03125 C 5.238281 -1.96875 4.023438 -3.269531 3.140625 -4.9375 C 2.265625 -6.601562 1.828125 -8.503906 1.828125 -10.640625 C 1.828125 -12.722656 2.265625 -14.578125 3.140625 -16.203125 C 4.023438 -17.835938 5.238281 -19.125 6.78125 -20.0625 C 8.332031 -21 10.113281 -21.46875 12.125 -21.46875 C 14.132812 -21.46875 15.921875 -21 17.484375 -20.0625 C 19.046875 -19.125 20.269531 -17.835938 21.15625 -16.203125 C 22.050781 -14.578125 22.5 -12.722656 22.5 -10.640625 C 22.5 -8.523438 22.0625 -6.632812 21.1875 -4.96875 C 20.3125 -3.3125 19.09375 -2.003906 17.53125 -1.046875 C 15.96875 -0.0976562 14.164062 0.375 12.125 0.375 Z M 12.125 -2.484375 C 13.476562 -2.484375 14.6875 -2.835938 15.75 -3.546875 C 16.820312 -4.253906 17.664062 -5.222656 18.28125 -6.453125 C 18.90625 -7.691406 19.21875 -9.085938 19.21875 -10.640625 C 19.21875 -12.140625 18.910156 -13.492188 18.296875 -14.703125 C 17.691406 -15.910156 16.851562 -16.863281 15.78125 -17.5625 C 14.71875 -18.257812 13.5 -18.609375 12.125 -18.609375 C 10.78125 -18.609375 9.570312 -18.265625 8.5 -17.578125 C 7.4375 -16.890625 6.597656 -15.941406 5.984375 -14.734375 C 5.378906 -13.523438 5.078125 -12.160156 5.078125 -10.640625 C 5.078125 -9.066406 5.382812 -7.660156 6 -6.421875 C 6.625 -5.191406 7.46875 -4.226562 8.53125 -3.53125 C 9.601562 -2.832031 10.800781 -2.484375 12.125 -2.484375 Z M 12.125 -2.484375 "/></g></g></g><g fill="#223d3c" fill-opacity="1"><g transform="translate(754.900663, 153.548135)"><g><path d="M 9.84375 0.375 C 6.894531 0.375 4.820312 -0.726562 3.625 -2.9375 C 2.957031 -4.1875 2.625 -6.003906 2.625 -8.390625 L 2.625 -21.09375 L 5.875 -21.09375 L 5.875 -8.390625 C 5.875 -6.148438 6.28125 -4.570312 7.09375 -3.65625 C 7.800781 -2.875 8.882812 -2.484375 10.34375 -2.484375 C 11.9375 -2.484375 13.21875 -3.003906 14.1875 -4.046875 C 14.875 -4.785156 15.363281 -5.769531 15.65625 -7 C 15.945312 -8.226562 16.09375 -9.925781 16.09375 -12.09375 L 16.09375 -21.09375 L 19.34375 -21.09375 L 19.34375 0 L 16.09375 0 L 16.09375 -3.28125 C 15.070312 -1.976562 14.070312 -1.039062 13.09375 -0.46875 C 12.125 0.09375 11.039062 0.375 9.84375 0.375 Z M 9.84375 0.375 "/></g></g></g><g fill="#223d3c" fill-opacity="1"><g transform="translate(776.94288, 153.548135)"><g><path d="M 5.953125 0 L 2.703125 0 L 2.703125 -21.09375 L 5.953125 -21.09375 L 5.953125 -17.8125 C 7.015625 -19.1875 8.035156 -20.140625 9.015625 -20.671875 C 9.992188 -21.203125 11.054688 -21.46875 12.203125 -21.46875 C 13.859375 -21.46875 15.179688 -21.15625 16.171875 -20.53125 C 17.160156 -19.914062 17.910156 -19.125 18.421875 -18.15625 C 18.929688 -17.21875 19.222656 -16.238281 19.296875 -15.21875 C 19.367188 -14.195312 19.40625 -13.359375 19.40625 -12.703125 L 19.40625 0 L 16.171875 0 L 16.171875 -12.703125 C 16.171875 -14.941406 15.765625 -16.519531 14.953125 -17.4375 C 14.242188 -18.21875 13.160156 -18.609375 11.703125 -18.609375 C 10.835938 -18.609375 10.085938 -18.46875 9.453125 -18.1875 C 8.816406 -17.914062 8.285156 -17.535156 7.859375 -17.046875 C 7.171875 -16.335938 6.679688 -15.359375 6.390625 -14.109375 C 6.097656 -12.867188 5.953125 -11.164062 5.953125 -9 Z M 5.953125 0 "/></g></g></g><g fill="#223d3c" fill-opacity="1"><g transform="translate(798.908832, 153.548135)"><g><path d="M 12.359375 0 L 9.421875 0 C 8.378906 0 7.484375 -0.144531 6.734375 -0.4375 C 5.984375 -0.726562 5.410156 -1.257812 5.015625 -2.03125 C 4.617188 -2.8125 4.421875 -3.898438 4.421875 -5.296875 L 4.421875 -18.234375 L 1.03125 -18.234375 L 1.03125 -21.09375 L 4.421875 -21.09375 L 4.421875 -29.09375 L 7.671875 -29.09375 L 7.671875 -21.09375 L 12.390625 -21.09375 L 12.390625 -18.234375 L 7.671875 -18.234375 L 7.671875 -5.953125 C 7.671875 -5.335938 7.710938 -4.796875 7.796875 -4.328125 C 7.890625 -3.859375 8.113281 -3.492188 8.46875 -3.234375 C 8.820312 -2.984375 9.394531 -2.859375 10.1875 -2.859375 L 12.359375 -2.859375 Z M 12.359375 0 "/></g></g></g><g fill="#223d3c" fill-opacity="1"><g transform="translate(812.675699, 153.548135)"><g><path d="M 5.953125 0 L 2.703125 0 L 2.703125 -21.09375 L 5.953125 -21.09375 L 5.953125 -18.1875 C 6.921875 -19.382812 7.957031 -20.226562 9.0625 -20.71875 C 10.164062 -21.21875 11.429688 -21.46875 12.859375 -21.46875 L 13 -21.46875 L 13 -18.234375 L 11.90625 -18.234375 C 10.195312 -18.234375 8.832031 -17.722656 7.8125 -16.703125 C 7.207031 -16.117188 6.742188 -15.367188 6.421875 -14.453125 C 6.109375 -13.535156 5.953125 -12.414062 5.953125 -11.09375 Z M 5.953125 0 "/></g></g></g><g fill="#223d3c" fill-opacity="1"><g transform="translate(826.51883, 153.548135)"><g><path d="M 5.828125 8.015625 L 2.703125 8.015625 L 2.703125 5.03125 L 4.6875 5.03125 C 5.269531 5.03125 5.738281 4.984375 6.09375 4.890625 C 6.457031 4.804688 6.765625 4.613281 7.015625 4.3125 C 7.273438 4.007812 7.53125 3.515625 7.78125 2.828125 L 8.921875 -0.3125 L 0.6875 -21.09375 L 4.265625 -21.09375 L 10.671875 -4.734375 L 16.625 -21.09375 L 20.140625 -21.09375 L 10.796875 4.234375 C 10.234375 5.785156 9.582031 6.800781 8.84375 7.28125 C 8.113281 7.769531 7.109375 8.015625 5.828125 8.015625 Z M 5.828125 8.015625 "/></g></g></g><g fill="#223d3c" fill-opacity="1"><g transform="translate(697.873183, 205.984113)"><g><path d="M 12.046875 0.375 C 10.066406 0.375 8.304688 -0.09375 6.765625 -1.03125 C 5.234375 -1.96875 4.023438 -3.269531 3.140625 -4.9375 C 2.265625 -6.601562 1.828125 -8.503906 1.828125 -10.640625 C 1.828125 -12.722656 2.257812 -14.578125 3.125 -16.203125 C 3.988281 -17.835938 5.191406 -19.125 6.734375 -20.0625 C 8.273438 -21 10.046875 -21.46875 12.046875 -21.46875 C 14.410156 -21.46875 16.410156 -20.859375 18.046875 -19.640625 C 19.691406 -18.421875 20.757812 -16.796875 21.25 -14.765625 L 17.78125 -14.765625 C 17.363281 -15.953125 16.640625 -16.890625 15.609375 -17.578125 C 14.585938 -18.265625 13.398438 -18.609375 12.046875 -18.609375 C 10.722656 -18.609375 9.535156 -18.265625 8.484375 -17.578125 C 7.429688 -16.890625 6.597656 -15.945312 5.984375 -14.75 C 5.378906 -13.5625 5.078125 -12.191406 5.078125 -10.640625 C 5.078125 -9.035156 5.378906 -7.625 5.984375 -6.40625 C 6.597656 -5.1875 7.429688 -4.226562 8.484375 -3.53125 C 9.535156 -2.832031 10.722656 -2.484375 12.046875 -2.484375 C 13.523438 -2.484375 14.789062 -2.875 15.84375 -3.65625 C 16.90625 -4.445312 17.597656 -5.488281 17.921875 -6.78125 L 21.390625 -6.78125 C 20.929688 -4.550781 19.847656 -2.800781 18.140625 -1.53125 C 16.441406 -0.257812 14.410156 0.375 12.046875 0.375 Z M 12.046875 0.375 "/></g></g></g><g fill="#223d3c" fill-opacity="1"><g transform="translate(720.830653, 205.984113)"><g><path d="M 12.09375 0.375 C 10.082031 0.375 8.300781 -0.0976562 6.75 -1.046875 C 5.195312 -2.003906 3.988281 -3.300781 3.125 -4.9375 C 2.257812 -6.582031 1.828125 -8.429688 1.828125 -10.484375 C 1.828125 -12.390625 2.222656 -14.179688 3.015625 -15.859375 C 3.804688 -17.546875 4.960938 -18.898438 6.484375 -19.921875 C 8.003906 -20.953125 9.847656 -21.46875 12.015625 -21.46875 C 13.796875 -21.46875 15.453125 -21.070312 16.984375 -20.28125 C 18.523438 -19.5 19.78125 -18.332031 20.75 -16.78125 C 21.71875 -15.226562 22.203125 -13.320312 22.203125 -11.0625 L 22.203125 -9.921875 L 5.03125 -9.921875 C 5.082031 -9.179688 5.222656 -8.476562 5.453125 -7.8125 C 5.984375 -6.1875 6.832031 -4.890625 8 -3.921875 C 9.175781 -2.960938 10.523438 -2.484375 12.046875 -2.484375 C 13.648438 -2.484375 14.984375 -2.90625 16.046875 -3.75 C 17.117188 -4.601562 17.882812 -5.613281 18.34375 -6.78125 L 21.8125 -6.78125 C 21.382812 -5.46875 20.738281 -4.269531 19.875 -3.1875 C 19.007812 -2.101562 17.929688 -1.238281 16.640625 -0.59375 C 15.359375 0.0507812 13.84375 0.375 12.09375 0.375 Z M 5.34375 -12.78125 L 18.734375 -12.78125 C 18.703125 -13.132812 18.644531 -13.488281 18.5625 -13.84375 C 18.488281 -14.195312 18.390625 -14.53125 18.265625 -14.84375 C 17.710938 -16.0625 16.878906 -16.992188 15.765625 -17.640625 C 14.660156 -18.285156 13.4375 -18.609375 12.09375 -18.609375 C 10.695312 -18.609375 9.46875 -18.273438 8.40625 -17.609375 C 7.351562 -16.953125 6.535156 -16.03125 5.953125 -14.84375 C 5.796875 -14.507812 5.664062 -14.160156 5.5625 -13.796875 C 5.46875 -13.441406 5.394531 -13.101562 5.34375 -12.78125 Z M 5.34375 -12.78125 "/></g></g></g><g fill="#223d3c" fill-opacity="1"><g transform="translate(744.817791, 205.984113)"><g><path d="M 5.953125 0 L 2.703125 0 L 2.703125 -21.09375 L 5.953125 -21.09375 L 5.953125 -17.8125 C 7.015625 -19.1875 8.035156 -20.140625 9.015625 -20.671875 C 9.992188 -21.203125 11.054688 -21.46875 12.203125 -21.46875 C 13.859375 -21.46875 15.179688 -21.15625 16.171875 -20.53125 C 17.160156 -19.914062 17.910156 -19.125 18.421875 -18.15625 C 18.929688 -17.21875 19.222656 -16.238281 19.296875 -15.21875 C 19.367188 -14.195312 19.40625 -13.359375 19.40625 -12.703125 L 19.40625 0 L 16.171875 0 L 16.171875 -12.703125 C 16.171875 -14.941406 15.765625 -16.519531 14.953125 -17.4375 C 14.242188 -18.21875 13.160156 -18.609375 11.703125 -18.609375 C 10.835938 -18.609375 10.085938 -18.46875 9.453125 -18.1875 C 8.816406 -17.914062 8.285156 -17.535156 7.859375 -17.046875 C 7.171875 -16.335938 6.679688 -15.359375 6.390625 -14.109375 C 6.097656 -12.867188 5.953125 -11.164062 5.953125 -9 Z M 5.953125 0 "/></g></g></g><g fill="#223d3c" fill-opacity="1"><g transform="translate(766.783744, 205.984113)"><g><path d="M 12.359375 0 L 9.421875 0 C 8.378906 0 7.484375 -0.144531 6.734375 -0.4375 C 5.984375 -0.726562 5.410156 -1.257812 5.015625 -2.03125 C 4.617188 -2.8125 4.421875 -3.898438 4.421875 -5.296875 L 4.421875 -18.234375 L 1.03125 -18.234375 L 1.03125 -21.09375 L 4.421875 -21.09375 L 4.421875 -29.09375 L 7.671875 -29.09375 L 7.671875 -21.09375 L 12.390625 -21.09375 L 12.390625 -18.234375 L 7.671875 -18.234375 L 7.671875 -5.953125 C 7.671875 -5.335938 7.710938 -4.796875 7.796875 -4.328125 C 7.890625 -3.859375 8.113281 -3.492188 8.46875 -3.234375 C 8.820312 -2.984375 9.394531 -2.859375 10.1875 -2.859375 L 12.359375 -2.859375 Z M 12.359375 0 "/></g></g></g><g fill="#223d3c" fill-opacity="1"><g transform="translate(780.55061, 205.984113)"><g><path d="M 5.953125 0 L 2.703125 0 L 2.703125 -21.09375 L 5.953125 -21.09375 L 5.953125 -18.1875 C 6.921875 -19.382812 7.957031 -20.226562 9.0625 -20.71875 C 10.164062 -21.21875 11.429688 -21.46875 12.859375 -21.46875 L 13 -21.46875 L 13 -18.234375 L 11.90625 -18.234375 C 10.195312 -18.234375 8.832031 -17.722656 7.8125 -16.703125 C 7.207031 -16.117188 6.742188 -15.367188 6.421875 -14.453125 C 6.109375 -13.535156 5.953125 -12.414062 5.953125 -11.09375 Z M 5.953125 0 "/></g></g></g><g fill="#223d3c" fill-opacity="1"><g transform="translate(794.393741, 205.984113)"><g><path d="M 12.125 0.375 C 10.113281 0.375 8.332031 -0.09375 6.78125 -1.03125 C 5.238281 -1.96875 4.023438 -3.269531 3.140625 -4.9375 C 2.265625 -6.601562 1.828125 -8.503906 1.828125 -10.640625 C 1.828125 -12.722656 2.265625 -14.578125 3.140625 -16.203125 C 4.023438 -17.835938 5.238281 -19.125 6.78125 -20.0625 C 8.332031 -21 10.113281 -21.46875 12.125 -21.46875 C 14.132812 -21.46875 15.921875 -21 17.484375 -20.0625 C 19.046875 -19.125 20.269531 -17.835938 21.15625 -16.203125 C 22.050781 -14.578125 22.5 -12.722656 22.5 -10.640625 C 22.5 -8.523438 22.0625 -6.632812 21.1875 -4.96875 C 20.3125 -3.3125 19.09375 -2.003906 17.53125 -1.046875 C 15.96875 -0.0976562 14.164062 0.375 12.125 0.375 Z M 12.125 -2.484375 C 13.476562 -2.484375 14.6875 -2.835938 15.75 -3.546875 C 16.820312 -4.253906 17.664062 -5.222656 18.28125 -6.453125 C 18.90625 -7.691406 19.21875 -9.085938 19.21875 -10.640625 C 19.21875 -12.140625 18.910156 -13.492188 18.296875 -14.703125 C 17.691406 -15.910156 16.851562 -16.863281 15.78125 -17.5625 C 14.71875 -18.257812 13.5 -18.609375 12.125 -18.609375 C 10.78125 -18.609375 9.570312 -18.265625 8.5 -17.578125 C 7.4375 -16.890625 6.597656 -15.941406 5.984375 -14.734375 C 5.378906 -13.523438 5.078125 -12.160156 5.078125 -10.640625 C 5.078125 -9.066406 5.382812 -7.660156 6 -6.421875 C 6.625 -5.191406 7.46875 -4.226562 8.53125 -3.53125 C 9.601562 -2.832031 10.800781 -2.484375 12.125 -2.484375 Z M 12.125 -2.484375 "/></g></g></g><g fill="#223d3c" fill-opacity="1"><g transform="translate(818.762204, 205.984113)"><g><path d="M 4.34375 -24.71875 C 3.65625 -24.71875 3.070312 -24.953125 2.59375 -25.421875 C 2.113281 -25.890625 1.875 -26.457031 1.875 -27.125 C 1.875 -27.78125 2.113281 -28.335938 2.59375 -28.796875 C 3.070312 -29.253906 3.65625 -29.484375 4.34375 -29.484375 C 5.03125 -29.484375 5.613281 -29.253906 6.09375 -28.796875 C 6.582031 -28.335938 6.828125 -27.78125 6.828125 -27.125 C 6.828125 -26.457031 6.582031 -25.890625 6.09375 -25.421875 C 5.613281 -24.953125 5.03125 -24.71875 4.34375 -24.71875 Z M 5.953125 0 L 2.703125 0 L 2.703125 -21.09375 L 5.953125 -21.09375 Z M 5.953125 0 "/></g></g></g><g fill="#223d3c" fill-opacity="1"><g transform="translate(827.418917, 205.984113)"><g><path d="M 11.296875 0.375 C 9.410156 0.375 7.757812 -0.0859375 6.34375 -1.015625 C 4.9375 -1.941406 3.84375 -3.222656 3.0625 -4.859375 C 2.289062 -6.503906 1.90625 -8.394531 1.90625 -10.53125 C 1.90625 -12.6875 2.289062 -14.582031 3.0625 -16.21875 C 3.84375 -17.863281 4.9375 -19.148438 6.34375 -20.078125 C 7.757812 -21.003906 9.410156 -21.46875 11.296875 -21.46875 C 12.710938 -21.46875 13.941406 -21.210938 14.984375 -20.703125 C 16.023438 -20.203125 17.09375 -19.238281 18.1875 -17.8125 L 18.1875 -29.09375 L 21.4375 -29.09375 L 21.4375 0 L 18.1875 0 L 18.1875 -3.28125 C 17.125 -1.90625 16.070312 -0.953125 15.03125 -0.421875 C 13.988281 0.109375 12.742188 0.375 11.296875 0.375 Z M 11.59375 -2.484375 C 12.914062 -2.484375 14.078125 -2.832031 15.078125 -3.53125 C 16.085938 -4.226562 16.878906 -5.179688 17.453125 -6.390625 C 18.023438 -7.597656 18.3125 -8.976562 18.3125 -10.53125 C 18.3125 -12.101562 18.023438 -13.492188 17.453125 -14.703125 C 16.878906 -15.910156 16.085938 -16.863281 15.078125 -17.5625 C 14.078125 -18.257812 12.914062 -18.609375 11.59375 -18.609375 C 10.269531 -18.609375 9.125 -18.253906 8.15625 -17.546875 C 7.195312 -16.835938 6.457031 -15.878906 5.9375 -14.671875 C 5.414062 -13.460938 5.15625 -12.082031 5.15625 -10.53125 C 5.15625 -9 5.414062 -7.628906 5.9375 -6.421875 C 6.457031 -5.210938 7.195312 -4.253906 8.15625 -3.546875 C 9.125 -2.835938 10.269531 -2.484375 11.59375 -2.484375 Z M 11.59375 -2.484375 "/></g></g></g><g fill="#223d3c" fill-opacity="1"><g transform="translate(415.584862, 795.479496)"><g><path d="M 15.640625 0.375 C 13.242188 0.375 11.179688 -0.0351562 9.453125 -0.859375 C 7.722656 -1.679688 6.300781 -2.796875 5.1875 -4.203125 C 4.070312 -5.617188 3.242188 -7.21875 2.703125 -9 C 2.171875 -10.78125 1.90625 -12.625 1.90625 -14.53125 C 1.90625 -16.4375 2.175781 -18.285156 2.71875 -20.078125 C 3.269531 -21.867188 4.097656 -23.46875 5.203125 -24.875 C 6.304688 -26.289062 7.722656 -27.410156 9.453125 -28.234375 C 11.179688 -29.066406 13.226562 -29.484375 15.59375 -29.484375 C 18.851562 -29.484375 21.519531 -28.707031 23.59375 -27.15625 C 25.664062 -25.601562 27.09375 -23.582031 27.875 -21.09375 L 23.953125 -21.09375 C 23.316406 -22.664062 22.28125 -23.9375 20.84375 -24.90625 C 19.40625 -25.875 17.628906 -26.359375 15.515625 -26.359375 C 13.742188 -26.359375 12.222656 -26.03125 10.953125 -25.375 C 9.679688 -24.726562 8.632812 -23.851562 7.8125 -22.75 C 7 -21.644531 6.394531 -20.390625 6 -18.984375 C 5.613281 -17.585938 5.421875 -16.140625 5.421875 -14.640625 C 5.421875 -12.535156 5.796875 -10.570312 6.546875 -8.75 C 7.296875 -6.9375 8.425781 -5.484375 9.9375 -4.390625 C 11.445312 -3.296875 13.332031 -2.75 15.59375 -2.75 C 17.5 -2.75 19.148438 -3.125 20.546875 -3.875 C 21.953125 -4.625 23.035156 -5.695312 23.796875 -7.09375 C 24.554688 -8.488281 24.9375 -10.15625 24.9375 -12.09375 L 17.96875 -12.09375 L 17.96875 -15.21875 L 28.375 -15.21875 L 28.375 0 L 25.171875 0 L 25.171875 -4.15625 C 24.148438 -2.601562 22.765625 -1.457031 21.015625 -0.71875 C 19.265625 0.0078125 17.472656 0.375 15.640625 0.375 Z M 15.640625 0.375 "/></g></g></g><g fill="#223d3c" fill-opacity="1"><g transform="translate(446.35641, 795.479496)"><g><path d="M 12.09375 0.375 C 10.082031 0.375 8.300781 -0.0976562 6.75 -1.046875 C 5.195312 -2.003906 3.988281 -3.300781 3.125 -4.9375 C 2.257812 -6.582031 1.828125 -8.429688 1.828125 -10.484375 C 1.828125 -12.390625 2.222656 -14.179688 3.015625 -15.859375 C 3.804688 -17.546875 4.960938 -18.898438 6.484375 -19.921875 C 8.003906 -20.953125 9.847656 -21.46875 12.015625 -21.46875 C 13.796875 -21.46875 15.453125 -21.070312 16.984375 -20.28125 C 18.523438 -19.5 19.78125 -18.332031 20.75 -16.78125 C 21.71875 -15.226562 22.203125 -13.320312 22.203125 -11.0625 L 22.203125 -9.921875 L 5.03125 -9.921875 C 5.082031 -9.179688 5.222656 -8.476562 5.453125 -7.8125 C 5.984375 -6.1875 6.832031 -4.890625 8 -3.921875 C 9.175781 -2.960938 10.523438 -2.484375 12.046875 -2.484375 C 13.648438 -2.484375 14.984375 -2.90625 16.046875 -3.75 C 17.117188 -4.601562 17.882812 -5.613281 18.34375 -6.78125 L 21.8125 -6.78125 C 21.382812 -5.46875 20.738281 -4.269531 19.875 -3.1875 C 19.007812 -2.101562 17.929688 -1.238281 16.640625 -0.59375 C 15.359375 0.0507812 13.84375 0.375 12.09375 0.375 Z M 5.34375 -12.78125 L 18.734375 -12.78125 C 18.703125 -13.132812 18.644531 -13.488281 18.5625 -13.84375 C 18.488281 -14.195312 18.390625 -14.53125 18.265625 -14.84375 C 17.710938 -16.0625 16.878906 -16.992188 15.765625 -17.640625 C 14.660156 -18.285156 13.4375 -18.609375 12.09375 -18.609375 C 10.695312 -18.609375 9.46875 -18.273438 8.40625 -17.609375 C 7.351562 -16.953125 6.535156 -16.03125 5.953125 -14.84375 C 5.796875 -14.507812 5.664062 -14.160156 5.5625 -13.796875 C 5.46875 -13.441406 5.394531 -13.101562 5.34375 -12.78125 Z M 5.34375 -12.78125 "/></g></g></g><g fill="#223d3c" fill-opacity="1"><g transform="translate(470.340679, 795.479496)"><g><path d="M 12.125 0.375 C 10.113281 0.375 8.332031 -0.09375 6.78125 -1.03125 C 5.238281 -1.96875 4.023438 -3.269531 3.140625 -4.9375 C 2.265625 -6.601562 1.828125 -8.503906 1.828125 -10.640625 C 1.828125 -12.722656 2.265625 -14.578125 3.140625 -16.203125 C 4.023438 -17.835938 5.238281 -19.125 6.78125 -20.0625 C 8.332031 -21 10.113281 -21.46875 12.125 -21.46875 C 14.132812 -21.46875 15.921875 -21 17.484375 -20.0625 C 19.046875 -19.125 20.269531 -17.835938 21.15625 -16.203125 C 22.050781 -14.578125 22.5 -12.722656 22.5 -10.640625 C 22.5 -8.523438 22.0625 -6.632812 21.1875 -4.96875 C 20.3125 -3.3125 19.09375 -2.003906 17.53125 -1.046875 C 15.96875 -0.0976562 14.164062 0.375 12.125 0.375 Z M 12.125 -2.484375 C 13.476562 -2.484375 14.6875 -2.835938 15.75 -3.546875 C 16.820312 -4.253906 17.664062 -5.222656 18.28125 -6.453125 C 18.90625 -7.691406 19.21875 -9.085938 19.21875 -10.640625 C 19.21875 -12.140625 18.910156 -13.492188 18.296875 -14.703125 C 17.691406 -15.910156 16.851562 -16.863281 15.78125 -17.5625 C 14.71875 -18.257812 13.5 -18.609375 12.125 -18.609375 C 10.78125 -18.609375 9.570312 -18.265625 8.5 -17.578125 C 7.4375 -16.890625 6.597656 -15.941406 5.984375 -14.734375 C 5.378906 -13.523438 5.078125 -12.160156 5.078125 -10.640625 C 5.078125 -9.066406 5.382812 -7.660156 6 -6.421875 C 6.625 -5.191406 7.46875 -4.226562 8.53125 -3.53125 C 9.601562 -2.832031 10.800781 -2.484375 12.125 -2.484375 Z M 12.125 -2.484375 "/></g></g></g><g fill="#223d3c" fill-opacity="1"><g transform="translate(494.706251, 795.479496)"><g><path d="M 11.21875 0.375 C 8.519531 0.375 6.335938 -0.265625 4.671875 -1.546875 C 3.003906 -2.828125 1.992188 -4.570312 1.640625 -6.78125 L 5.03125 -6.78125 C 5.3125 -5.507812 5.945312 -4.472656 6.9375 -3.671875 C 7.925781 -2.878906 9.363281 -2.484375 11.25 -2.484375 C 12.675781 -2.484375 13.835938 -2.753906 14.734375 -3.296875 C 15.640625 -3.847656 16.09375 -4.65625 16.09375 -5.71875 C 16.09375 -6.613281 15.8125 -7.300781 15.25 -7.78125 C 14.695312 -8.257812 13.96875 -8.625 13.0625 -8.875 C 12.15625 -9.132812 11.179688 -9.367188 10.140625 -9.578125 C 9.222656 -9.753906 8.3125 -9.957031 7.40625 -10.1875 C 6.507812 -10.414062 5.691406 -10.734375 4.953125 -11.140625 C 4.222656 -11.546875 3.632812 -12.09375 3.1875 -12.78125 C 2.738281 -13.46875 2.515625 -14.34375 2.515625 -15.40625 C 2.515625 -16.726562 2.847656 -17.835938 3.515625 -18.734375 C 4.191406 -19.640625 5.113281 -20.320312 6.28125 -20.78125 C 7.457031 -21.238281 8.757812 -21.46875 10.1875 -21.46875 C 12.46875 -21.46875 14.367188 -20.875 15.890625 -19.6875 C 17.421875 -18.507812 18.367188 -16.867188 18.734375 -14.765625 L 15.71875 -14.765625 C 15.382812 -16.109375 14.726562 -17.082031 13.75 -17.6875 C 12.769531 -18.300781 11.582031 -18.609375 10.1875 -18.609375 C 8.78125 -18.609375 7.691406 -18.347656 6.921875 -17.828125 C 6.148438 -17.304688 5.765625 -16.585938 5.765625 -15.671875 C 5.765625 -14.929688 6.023438 -14.351562 6.546875 -13.9375 C 7.066406 -13.519531 7.742188 -13.203125 8.578125 -12.984375 C 9.421875 -12.765625 10.328125 -12.554688 11.296875 -12.359375 C 12.234375 -12.179688 13.175781 -11.96875 14.125 -11.71875 C 15.082031 -11.476562 15.953125 -11.140625 16.734375 -10.703125 C 17.523438 -10.273438 18.15625 -9.691406 18.625 -8.953125 C 19.101562 -8.222656 19.34375 -7.257812 19.34375 -6.0625 C 19.34375 -4.132812 18.632812 -2.578125 17.21875 -1.390625 C 15.8125 -0.210938 13.8125 0.375 11.21875 0.375 Z M 11.21875 0.375 "/></g></g></g><g fill="#223d3c" fill-opacity="1"><g transform="translate(515.945098, 795.479496)"><g><path d="M 12.890625 -21.46875 C 14.796875 -21.46875 16.445312 -21.003906 17.84375 -20.078125 C 19.25 -19.148438 20.335938 -17.875 21.109375 -16.25 C 21.890625 -14.625 22.28125 -12.726562 22.28125 -10.5625 C 22.28125 -8.40625 21.890625 -6.503906 21.109375 -4.859375 C 20.335938 -3.222656 19.25 -1.941406 17.84375 -1.015625 C 16.445312 -0.0859375 14.796875 0.375 12.890625 0.375 C 11.492188 0.375 10.265625 0.113281 9.203125 -0.40625 C 8.148438 -0.925781 7.078125 -1.882812 5.984375 -3.28125 L 5.984375 8.015625 L 2.75 8.015625 L 2.75 -21.09375 L 5.984375 -21.09375 L 5.984375 -17.8125 C 7.054688 -19.1875 8.113281 -20.140625 9.15625 -20.671875 C 10.195312 -21.203125 11.441406 -21.46875 12.890625 -21.46875 Z M 12.59375 -18.609375 C 11.289062 -18.609375 10.128906 -18.257812 9.109375 -17.5625 C 8.097656 -16.863281 7.304688 -15.910156 6.734375 -14.703125 C 6.160156 -13.492188 5.875 -12.113281 5.875 -10.5625 C 5.875 -9.007812 6.160156 -7.625 6.734375 -6.40625 C 7.304688 -5.1875 8.097656 -4.226562 9.109375 -3.53125 C 10.128906 -2.832031 11.289062 -2.484375 12.59375 -2.484375 C 13.90625 -2.484375 15.046875 -2.835938 16.015625 -3.546875 C 16.984375 -4.253906 17.726562 -5.21875 18.25 -6.4375 C 18.769531 -7.664062 19.03125 -9.039062 19.03125 -10.5625 C 19.03125 -12.09375 18.769531 -13.460938 18.25 -14.671875 C 17.726562 -15.878906 16.984375 -16.835938 16.015625 -17.546875 C 15.046875 -18.253906 13.90625 -18.609375 12.59375 -18.609375 Z M 12.59375 -18.609375 "/></g></g></g><g fill="#223d3c" fill-opacity="1"><g transform="translate(540.120022, 795.479496)"><g><path d="M 8.703125 0.375 C 6.585938 0.375 4.910156 -0.15625 3.671875 -1.21875 C 2.441406 -2.289062 1.828125 -3.753906 1.828125 -5.609375 C 1.828125 -7.441406 2.515625 -8.890625 3.890625 -9.953125 C 5.003906 -10.847656 6.617188 -11.507812 8.734375 -11.9375 L 16.25 -13.390625 C 16.25 -15.035156 15.816406 -16.289062 14.953125 -17.15625 C 13.984375 -18.125 12.6875 -18.609375 11.0625 -18.609375 C 9.757812 -18.609375 8.628906 -18.265625 7.671875 -17.578125 C 6.722656 -16.890625 6.125 -15.953125 5.875 -14.765625 L 2.625 -14.765625 C 2.882812 -16.234375 3.425781 -17.460938 4.25 -18.453125 C 5.082031 -19.453125 6.09375 -20.203125 7.28125 -20.703125 C 8.476562 -21.210938 9.75 -21.46875 11.09375 -21.46875 C 12.3125 -21.46875 13.460938 -21.289062 14.546875 -20.9375 C 15.628906 -20.582031 16.539062 -20.035156 17.28125 -19.296875 C 18.019531 -18.585938 18.539062 -17.785156 18.84375 -16.890625 C 19.144531 -16.003906 19.328125 -15.160156 19.390625 -14.359375 C 19.453125 -13.554688 19.484375 -12.914062 19.484375 -12.4375 L 19.484375 0 L 16.25 0 L 16.25 -3.3125 C 15.507812 -2.25 14.65625 -1.425781 13.6875 -0.84375 C 12.976562 -0.40625 12.207031 -0.09375 11.375 0.09375 C 10.550781 0.28125 9.660156 0.375 8.703125 0.375 Z M 9.078125 -2.484375 C 10.367188 -2.484375 11.488281 -2.722656 12.4375 -3.203125 C 13.9375 -3.992188 14.953125 -5.007812 15.484375 -6.25 C 16.015625 -7.5 16.28125 -9 16.28125 -10.75 L 9.421875 -9.375 C 7.847656 -9.070312 6.691406 -8.578125 5.953125 -7.890625 C 5.367188 -7.304688 5.078125 -6.570312 5.078125 -5.6875 C 5.078125 -4.71875 5.4375 -3.941406 6.15625 -3.359375 C 6.882812 -2.773438 7.859375 -2.484375 9.078125 -2.484375 Z M 9.078125 -2.484375 "/></g></g></g><g fill="#223d3c" fill-opacity="1"><g transform="translate(562.083366, 795.479496)"><g><path d="M 12.359375 0 L 9.421875 0 C 8.378906 0 7.484375 -0.144531 6.734375 -0.4375 C 5.984375 -0.726562 5.410156 -1.257812 5.015625 -2.03125 C 4.617188 -2.8125 4.421875 -3.898438 4.421875 -5.296875 L 4.421875 -18.234375 L 1.03125 -18.234375 L 1.03125 -21.09375 L 4.421875 -21.09375 L 4.421875 -29.09375 L 7.671875 -29.09375 L 7.671875 -21.09375 L 12.390625 -21.09375 L 12.390625 -18.234375 L 7.671875 -18.234375 L 7.671875 -5.953125 C 7.671875 -5.335938 7.710938 -4.796875 7.796875 -4.328125 C 7.890625 -3.859375 8.113281 -3.492188 8.46875 -3.234375 C 8.820312 -2.984375 9.394531 -2.859375 10.1875 -2.859375 L 12.359375 -2.859375 Z M 12.359375 0 "/></g></g></g><g fill="#223d3c" fill-opacity="1"><g transform="translate(575.848581, 795.479496)"><g><path d="M 4.34375 -24.71875 C 3.65625 -24.71875 3.070312 -24.953125 2.59375 -25.421875 C 2.113281 -25.890625 1.875 -26.457031 1.875 -27.125 C 1.875 -27.78125 2.113281 -28.335938 2.59375 -28.796875 C 3.070312 -29.253906 3.65625 -29.484375 4.34375 -29.484375 C 5.03125 -29.484375 5.613281 -29.253906 6.09375 -28.796875 C 6.582031 -28.335938 6.828125 -27.78125 6.828125 -27.125 C 6.828125 -26.457031 6.582031 -25.890625 6.09375 -25.421875 C 5.613281 -24.953125 5.03125 -24.71875 4.34375 -24.71875 Z M 5.953125 0 L 2.703125 0 L 2.703125 -21.09375 L 5.953125 -21.09375 Z M 5.953125 0 "/></g></g></g><g fill="#223d3c" fill-opacity="1"><g transform="translate(584.504281, 795.479496)"><g><path d="M 8.703125 0.375 C 6.585938 0.375 4.910156 -0.15625 3.671875 -1.21875 C 2.441406 -2.289062 1.828125 -3.753906 1.828125 -5.609375 C 1.828125 -7.441406 2.515625 -8.890625 3.890625 -9.953125 C 5.003906 -10.847656 6.617188 -11.507812 8.734375 -11.9375 L 16.25 -13.390625 C 16.25 -15.035156 15.816406 -16.289062 14.953125 -17.15625 C 13.984375 -18.125 12.6875 -18.609375 11.0625 -18.609375 C 9.757812 -18.609375 8.628906 -18.265625 7.671875 -17.578125 C 6.722656 -16.890625 6.125 -15.953125 5.875 -14.765625 L 2.625 -14.765625 C 2.882812 -16.234375 3.425781 -17.460938 4.25 -18.453125 C 5.082031 -19.453125 6.09375 -20.203125 7.28125 -20.703125 C 8.476562 -21.210938 9.75 -21.46875 11.09375 -21.46875 C 12.3125 -21.46875 13.460938 -21.289062 14.546875 -20.9375 C 15.628906 -20.582031 16.539062 -20.035156 17.28125 -19.296875 C 18.019531 -18.585938 18.539062 -17.785156 18.84375 -16.890625 C 19.144531 -16.003906 19.328125 -15.160156 19.390625 -14.359375 C 19.453125 -13.554688 19.484375 -12.914062 19.484375 -12.4375 L 19.484375 0 L 16.25 0 L 16.25 -3.3125 C 15.507812 -2.25 14.65625 -1.425781 13.6875 -0.84375 C 12.976562 -0.40625 12.207031 -0.09375 11.375 0.09375 C 10.550781 0.28125 9.660156 0.375 8.703125 0.375 Z M 9.078125 -2.484375 C 10.367188 -2.484375 11.488281 -2.722656 12.4375 -3.203125 C 13.9375 -3.992188 14.953125 -5.007812 15.484375 -6.25 C 16.015625 -7.5 16.28125 -9 16.28125 -10.75 L 9.421875 -9.375 C 7.847656 -9.070312 6.691406 -8.578125 5.953125 -7.890625 C 5.367188 -7.304688 5.078125 -6.570312 5.078125 -5.6875 C 5.078125 -4.71875 5.4375 -3.941406 6.15625 -3.359375 C 6.882812 -2.773438 7.859375 -2.484375 9.078125 -2.484375 Z M 9.078125 -2.484375 "/></g></g></g><g fill="#223d3c" fill-opacity="1"><g transform="translate(606.467616, 795.479496)"><g><path d="M 9.421875 0 L 7.625 0 C 6.582031 0 5.6875 -0.144531 4.9375 -0.4375 C 4.1875 -0.726562 3.613281 -1.257812 3.21875 -2.03125 C 2.820312 -2.8125 2.625 -3.898438 2.625 -5.296875 L 2.625 -29.09375 L 5.875 -29.09375 L 5.875 -5.796875 C 5.875 -5.160156 5.914062 -4.625 6 -4.1875 C 6.09375 -3.757812 6.316406 -3.429688 6.671875 -3.203125 C 7.023438 -2.972656 7.597656 -2.859375 8.390625 -2.859375 L 9.421875 -2.859375 Z M 9.421875 0 "/></g></g></g><g fill="#223d3c" fill-opacity="1"><g transform="translate(429.688387, 852.158454)"><g><path d="M 11.296875 0.375 C 9.410156 0.375 7.757812 -0.0859375 6.34375 -1.015625 C 4.9375 -1.941406 3.84375 -3.222656 3.0625 -4.859375 C 2.289062 -6.503906 1.90625 -8.394531 1.90625 -10.53125 C 1.90625 -12.6875 2.289062 -14.582031 3.0625 -16.21875 C 3.84375 -17.863281 4.9375 -19.148438 6.34375 -20.078125 C 7.757812 -21.003906 9.410156 -21.46875 11.296875 -21.46875 C 12.710938 -21.46875 13.941406 -21.210938 14.984375 -20.703125 C 16.023438 -20.203125 17.09375 -19.238281 18.1875 -17.8125 L 18.1875 -29.09375 L 21.4375 -29.09375 L 21.4375 0 L 18.1875 0 L 18.1875 -3.28125 C 17.125 -1.90625 16.070312 -0.953125 15.03125 -0.421875 C 13.988281 0.109375 12.742188 0.375 11.296875 0.375 Z M 11.59375 -2.484375 C 12.914062 -2.484375 14.078125 -2.832031 15.078125 -3.53125 C 16.085938 -4.226562 16.878906 -5.179688 17.453125 -6.390625 C 18.023438 -7.597656 18.3125 -8.976562 18.3125 -10.53125 C 18.3125 -12.101562 18.023438 -13.492188 17.453125 -14.703125 C 16.878906 -15.910156 16.085938 -16.863281 15.078125 -17.5625 C 14.078125 -18.257812 12.914062 -18.609375 11.59375 -18.609375 C 10.269531 -18.609375 9.125 -18.253906 8.15625 -17.546875 C 7.195312 -16.835938 6.457031 -15.878906 5.9375 -14.671875 C 5.414062 -13.460938 5.15625 -12.082031 5.15625 -10.53125 C 5.15625 -9 5.414062 -7.628906 5.9375 -6.421875 C 6.457031 -5.210938 7.195312 -4.253906 8.15625 -3.546875 C 9.125 -2.835938 10.269531 -2.484375 11.59375 -2.484375 Z M 11.59375 -2.484375 "/></g></g></g><g fill="#223d3c" fill-opacity="1"><g transform="translate(453.863312, 852.158454)"><g><path d="M 8.703125 0.375 C 6.585938 0.375 4.910156 -0.15625 3.671875 -1.21875 C 2.441406 -2.289062 1.828125 -3.753906 1.828125 -5.609375 C 1.828125 -7.441406 2.515625 -8.890625 3.890625 -9.953125 C 5.003906 -10.847656 6.617188 -11.507812 8.734375 -11.9375 L 16.25 -13.390625 C 16.25 -15.035156 15.816406 -16.289062 14.953125 -17.15625 C 13.984375 -18.125 12.6875 -18.609375 11.0625 -18.609375 C 9.757812 -18.609375 8.628906 -18.265625 7.671875 -17.578125 C 6.722656 -16.890625 6.125 -15.953125 5.875 -14.765625 L 2.625 -14.765625 C 2.882812 -16.234375 3.425781 -17.460938 4.25 -18.453125 C 5.082031 -19.453125 6.09375 -20.203125 7.28125 -20.703125 C 8.476562 -21.210938 9.75 -21.46875 11.09375 -21.46875 C 12.3125 -21.46875 13.460938 -21.289062 14.546875 -20.9375 C 15.628906 -20.582031 16.539062 -20.035156 17.28125 -19.296875 C 18.019531 -18.585938 18.539062 -17.785156 18.84375 -16.890625 C 19.144531 -16.003906 19.328125 -15.160156 19.390625 -14.359375 C 19.453125 -13.554688 19.484375 -12.914062 19.484375 -12.4375 L 19.484375 0 L 16.25 0 L 16.25 -3.3125 C 15.507812 -2.25 14.65625 -1.425781 13.6875 -0.84375 C 12.976562 -0.40625 12.207031 -0.09375 11.375 0.09375 C 10.550781 0.28125 9.660156 0.375 8.703125 0.375 Z M 9.078125 -2.484375 C 10.367188 -2.484375 11.488281 -2.722656 12.4375 -3.203125 C 13.9375 -3.992188 14.953125 -5.007812 15.484375 -6.25 C 16.015625 -7.5 16.28125 -9 16.28125 -10.75 L 9.421875 -9.375 C 7.847656 -9.070312 6.691406 -8.578125 5.953125 -7.890625 C 5.367188 -7.304688 5.078125 -6.570312 5.078125 -5.6875 C 5.078125 -4.71875 5.4375 -3.941406 6.15625 -3.359375 C 6.882812 -2.773438 7.859375 -2.484375 9.078125 -2.484375 Z M 9.078125 -2.484375 "/></g></g></g><g fill="#223d3c" fill-opacity="1"><g transform="translate(475.826647, 852.158454)"><g><path d="M 12.359375 0 L 9.421875 0 C 8.378906 0 7.484375 -0.144531 6.734375 -0.4375 C 5.984375 -0.726562 5.410156 -1.257812 5.015625 -2.03125 C 4.617188 -2.8125 4.421875 -3.898438 4.421875 -5.296875 L 4.421875 -18.234375 L 1.03125 -18.234375 L 1.03125 -21.09375 L 4.421875 -21.09375 L 4.421875 -29.09375 L 7.671875 -29.09375 L 7.671875 -21.09375 L 12.390625 -21.09375 L 12.390625 -18.234375 L 7.671875 -18.234375 L 7.671875 -5.953125 C 7.671875 -5.335938 7.710938 -4.796875 7.796875 -4.328125 C 7.890625 -3.859375 8.113281 -3.492188 8.46875 -3.234375 C 8.820312 -2.984375 9.394531 -2.859375 10.1875 -2.859375 L 12.359375 -2.859375 Z M 12.359375 0 "/></g></g></g><g fill="#223d3c" fill-opacity="1"><g transform="translate(489.591862, 852.158454)"><g><path d="M 8.703125 0.375 C 6.585938 0.375 4.910156 -0.15625 3.671875 -1.21875 C 2.441406 -2.289062 1.828125 -3.753906 1.828125 -5.609375 C 1.828125 -7.441406 2.515625 -8.890625 3.890625 -9.953125 C 5.003906 -10.847656 6.617188 -11.507812 8.734375 -11.9375 L 16.25 -13.390625 C 16.25 -15.035156 15.816406 -16.289062 14.953125 -17.15625 C 13.984375 -18.125 12.6875 -18.609375 11.0625 -18.609375 C 9.757812 -18.609375 8.628906 -18.265625 7.671875 -17.578125 C 6.722656 -16.890625 6.125 -15.953125 5.875 -14.765625 L 2.625 -14.765625 C 2.882812 -16.234375 3.425781 -17.460938 4.25 -18.453125 C 5.082031 -19.453125 6.09375 -20.203125 7.28125 -20.703125 C 8.476562 -21.210938 9.75 -21.46875 11.09375 -21.46875 C 12.3125 -21.46875 13.460938 -21.289062 14.546875 -20.9375 C 15.628906 -20.582031 16.539062 -20.035156 17.28125 -19.296875 C 18.019531 -18.585938 18.539062 -17.785156 18.84375 -16.890625 C 19.144531 -16.003906 19.328125 -15.160156 19.390625 -14.359375 C 19.453125 -13.554688 19.484375 -12.914062 19.484375 -12.4375 L 19.484375 0 L 16.25 0 L 16.25 -3.3125 C 15.507812 -2.25 14.65625 -1.425781 13.6875 -0.84375 C 12.976562 -0.40625 12.207031 -0.09375 11.375 0.09375 C 10.550781 0.28125 9.660156 0.375 8.703125 0.375 Z M 9.078125 -2.484375 C 10.367188 -2.484375 11.488281 -2.722656 12.4375 -3.203125 C 13.9375 -3.992188 14.953125 -5.007812 15.484375 -6.25 C 16.015625 -7.5 16.28125 -9 16.28125 -10.75 L 9.421875 -9.375 C 7.847656 -9.070312 6.691406 -8.578125 5.953125 -7.890625 C 5.367188 -7.304688 5.078125 -6.570312 5.078125 -5.6875 C 5.078125 -4.71875 5.4375 -3.941406 6.15625 -3.359375 C 6.882812 -2.773438 7.859375 -2.484375 9.078125 -2.484375 Z M 9.078125 -2.484375 "/></g></g></g><g fill="#223d3c" fill-opacity="1"><g transform="translate(511.555198, 852.158454)"><g><path d="M 12.890625 0.375 C 11.441406 0.375 10.195312 0.109375 9.15625 -0.421875 C 8.113281 -0.953125 7.054688 -1.90625 5.984375 -3.28125 L 5.984375 0 L 2.75 0 L 2.75 -29.09375 L 5.984375 -29.09375 L 5.984375 -17.8125 C 7.078125 -19.238281 8.148438 -20.203125 9.203125 -20.703125 C 10.265625 -21.210938 11.492188 -21.46875 12.890625 -21.46875 C 14.796875 -21.46875 16.445312 -21.003906 17.84375 -20.078125 C 19.25 -19.148438 20.335938 -17.863281 21.109375 -16.21875 C 21.890625 -14.582031 22.28125 -12.6875 22.28125 -10.53125 C 22.28125 -8.394531 21.890625 -6.503906 21.109375 -4.859375 C 20.335938 -3.222656 19.25 -1.941406 17.84375 -1.015625 C 16.445312 -0.0859375 14.796875 0.375 12.890625 0.375 Z M 12.59375 -2.484375 C 13.90625 -2.484375 15.046875 -2.835938 16.015625 -3.546875 C 16.984375 -4.253906 17.726562 -5.210938 18.25 -6.421875 C 18.769531 -7.628906 19.03125 -9 19.03125 -10.53125 C 19.03125 -12.082031 18.769531 -13.460938 18.25 -14.671875 C 17.726562 -15.878906 16.984375 -16.835938 16.015625 -17.546875 C 15.046875 -18.253906 13.90625 -18.609375 12.59375 -18.609375 C 11.289062 -18.609375 10.128906 -18.257812 9.109375 -17.5625 C 8.097656 -16.863281 7.304688 -15.910156 6.734375 -14.703125 C 6.160156 -13.492188 5.875 -12.101562 5.875 -10.53125 C 5.875 -8.976562 6.160156 -7.597656 6.734375 -6.390625 C 7.304688 -5.179688 8.097656 -4.226562 9.109375 -3.53125 C 10.128906 -2.832031 11.289062 -2.484375 12.59375 -2.484375 Z M 12.59375 -2.484375 "/></g></g></g><g fill="#223d3c" fill-opacity="1"><g transform="translate(535.730122, 852.158454)"><g><path d="M 8.703125 0.375 C 6.585938 0.375 4.910156 -0.15625 3.671875 -1.21875 C 2.441406 -2.289062 1.828125 -3.753906 1.828125 -5.609375 C 1.828125 -7.441406 2.515625 -8.890625 3.890625 -9.953125 C 5.003906 -10.847656 6.617188 -11.507812 8.734375 -11.9375 L 16.25 -13.390625 C 16.25 -15.035156 15.816406 -16.289062 14.953125 -17.15625 C 13.984375 -18.125 12.6875 -18.609375 11.0625 -18.609375 C 9.757812 -18.609375 8.628906 -18.265625 7.671875 -17.578125 C 6.722656 -16.890625 6.125 -15.953125 5.875 -14.765625 L 2.625 -14.765625 C 2.882812 -16.234375 3.425781 -17.460938 4.25 -18.453125 C 5.082031 -19.453125 6.09375 -20.203125 7.28125 -20.703125 C 8.476562 -21.210938 9.75 -21.46875 11.09375 -21.46875 C 12.3125 -21.46875 13.460938 -21.289062 14.546875 -20.9375 C 15.628906 -20.582031 16.539062 -20.035156 17.28125 -19.296875 C 18.019531 -18.585938 18.539062 -17.785156 18.84375 -16.890625 C 19.144531 -16.003906 19.328125 -15.160156 19.390625 -14.359375 C 19.453125 -13.554688 19.484375 -12.914062 19.484375 -12.4375 L 19.484375 0 L 16.25 0 L 16.25 -3.3125 C 15.507812 -2.25 14.65625 -1.425781 13.6875 -0.84375 C 12.976562 -0.40625 12.207031 -0.09375 11.375 0.09375 C 10.550781 0.28125 9.660156 0.375 8.703125 0.375 Z M 9.078125 -2.484375 C 10.367188 -2.484375 11.488281 -2.722656 12.4375 -3.203125 C 13.9375 -3.992188 14.953125 -5.007812 15.484375 -6.25 C 16.015625 -7.5 16.28125 -9 16.28125 -10.75 L 9.421875 -9.375 C 7.847656 -9.070312 6.691406 -8.578125 5.953125 -7.890625 C 5.367188 -7.304688 5.078125 -6.570312 5.078125 -5.6875 C 5.078125 -4.71875 5.4375 -3.941406 6.15625 -3.359375 C 6.882812 -2.773438 7.859375 -2.484375 9.078125 -2.484375 Z M 9.078125 -2.484375 "/></g></g></g><g fill="#223d3c" fill-opacity="1"><g transform="translate(557.693457, 852.158454)"><g><path d="M 11.21875 0.375 C 8.519531 0.375 6.335938 -0.265625 4.671875 -1.546875 C 3.003906 -2.828125 1.992188 -4.570312 1.640625 -6.78125 L 5.03125 -6.78125 C 5.3125 -5.507812 5.945312 -4.472656 6.9375 -3.671875 C 7.925781 -2.878906 9.363281 -2.484375 11.25 -2.484375 C 12.675781 -2.484375 13.835938 -2.753906 14.734375 -3.296875 C 15.640625 -3.847656 16.09375 -4.65625 16.09375 -5.71875 C 16.09375 -6.613281 15.8125 -7.300781 15.25 -7.78125 C 14.695312 -8.257812 13.96875 -8.625 13.0625 -8.875 C 12.15625 -9.132812 11.179688 -9.367188 10.140625 -9.578125 C 9.222656 -9.753906 8.3125 -9.957031 7.40625 -10.1875 C 6.507812 -10.414062 5.691406 -10.734375 4.953125 -11.140625 C 4.222656 -11.546875 3.632812 -12.09375 3.1875 -12.78125 C 2.738281 -13.46875 2.515625 -14.34375 2.515625 -15.40625 C 2.515625 -16.726562 2.847656 -17.835938 3.515625 -18.734375 C 4.191406 -19.640625 5.113281 -20.320312 6.28125 -20.78125 C 7.457031 -21.238281 8.757812 -21.46875 10.1875 -21.46875 C 12.46875 -21.46875 14.367188 -20.875 15.890625 -19.6875 C 17.421875 -18.507812 18.367188 -16.867188 18.734375 -14.765625 L 15.71875 -14.765625 C 15.382812 -16.109375 14.726562 -17.082031 13.75 -17.6875 C 12.769531 -18.300781 11.582031 -18.609375 10.1875 -18.609375 C 8.78125 -18.609375 7.691406 -18.347656 6.921875 -17.828125 C 6.148438 -17.304688 5.765625 -16.585938 5.765625 -15.671875 C 5.765625 -14.929688 6.023438 -14.351562 6.546875 -13.9375 C 7.066406 -13.519531 7.742188 -13.203125 8.578125 -12.984375 C 9.421875 -12.765625 10.328125 -12.554688 11.296875 -12.359375 C 12.234375 -12.179688 13.175781 -11.96875 14.125 -11.71875 C 15.082031 -11.476562 15.953125 -11.140625 16.734375 -10.703125 C 17.523438 -10.273438 18.15625 -9.691406 18.625 -8.953125 C 19.101562 -8.222656 19.34375 -7.257812 19.34375 -6.0625 C 19.34375 -4.132812 18.632812 -2.578125 17.21875 -1.390625 C 15.8125 -0.210938 13.8125 0.375 11.21875 0.375 Z M 11.21875 0.375 "/></g></g></g><g fill="#223d3c" fill-opacity="1"><g transform="translate(578.932305, 852.158454)"><g><path d="M 12.09375 0.375 C 10.082031 0.375 8.300781 -0.0976562 6.75 -1.046875 C 5.195312 -2.003906 3.988281 -3.300781 3.125 -4.9375 C 2.257812 -6.582031 1.828125 -8.429688 1.828125 -10.484375 C 1.828125 -12.390625 2.222656 -14.179688 3.015625 -15.859375 C 3.804688 -17.546875 4.960938 -18.898438 6.484375 -19.921875 C 8.003906 -20.953125 9.847656 -21.46875 12.015625 -21.46875 C 13.796875 -21.46875 15.453125 -21.070312 16.984375 -20.28125 C 18.523438 -19.5 19.78125 -18.332031 20.75 -16.78125 C 21.71875 -15.226562 22.203125 -13.320312 22.203125 -11.0625 L 22.203125 -9.921875 L 5.03125 -9.921875 C 5.082031 -9.179688 5.222656 -8.476562 5.453125 -7.8125 C 5.984375 -6.1875 6.832031 -4.890625 8 -3.921875 C 9.175781 -2.960938 10.523438 -2.484375 12.046875 -2.484375 C 13.648438 -2.484375 14.984375 -2.90625 16.046875 -3.75 C 17.117188 -4.601562 17.882812 -5.613281 18.34375 -6.78125 L 21.8125 -6.78125 C 21.382812 -5.46875 20.738281 -4.269531 19.875 -3.1875 C 19.007812 -2.101562 17.929688 -1.238281 16.640625 -0.59375 C 15.359375 0.0507812 13.84375 0.375 12.09375 0.375 Z M 5.34375 -12.78125 L 18.734375 -12.78125 C 18.703125 -13.132812 18.644531 -13.488281 18.5625 -13.84375 C 18.488281 -14.195312 18.390625 -14.53125 18.265625 -14.84375 C 17.710938 -16.0625 16.878906 -16.992188 15.765625 -17.640625 C 14.660156 -18.285156 13.4375 -18.609375 12.09375 -18.609375 C 10.695312 -18.609375 9.46875 -18.273438 8.40625 -17.609375 C 7.351562 -16.953125 6.535156 -16.03125 5.953125 -14.84375 C 5.796875 -14.507812 5.664062 -14.160156 5.5625 -13.796875 C 5.46875 -13.441406 5.394531 -13.101562 5.34375 -12.78125 Z M 5.34375 -12.78125 "/></g></g></g><g fill="#223d3c" fill-opacity="1"><g transform="translate(426.215535, 1047.471147)"><g><path d="M 6.515625 0 L 3.015625 0 L 3.015625 -29.09375 L 21.8125 -29.09375 L 21.8125 -25.921875 L 6.515625 -25.921875 L 6.515625 -16.171875 L 20.015625 -16.171875 L 20.015625 -13.03125 L 6.515625 -13.03125 Z M 6.515625 0 "/></g></g></g><g fill="#223d3c" fill-opacity="1"><g transform="translate(449.128903, 1047.471147)"><g><path d="M 9.421875 0 L 7.625 0 C 6.582031 0 5.6875 -0.144531 4.9375 -0.4375 C 4.1875 -0.726562 3.613281 -1.257812 3.21875 -2.03125 C 2.820312 -2.8125 2.625 -3.898438 2.625 -5.296875 L 2.625 -29.09375 L 5.875 -29.09375 L 5.875 -5.796875 C 5.875 -5.160156 5.914062 -4.625 6 -4.1875 C 6.09375 -3.757812 6.316406 -3.429688 6.671875 -3.203125 C 7.023438 -2.972656 7.597656 -2.859375 8.390625 -2.859375 L 9.421875 -2.859375 Z M 9.421875 0 "/></g></g></g><g fill="#223d3c" fill-opacity="1"><g transform="translate(459.689641, 1047.471147)"><g><path d="M 12.125 0.375 C 10.113281 0.375 8.332031 -0.09375 6.78125 -1.03125 C 5.226562 -1.96875 4.015625 -3.269531 3.140625 -4.9375 C 2.265625 -6.601562 1.828125 -8.503906 1.828125 -10.640625 C 1.828125 -12.722656 2.265625 -14.578125 3.140625 -16.203125 C 4.015625 -17.828125 5.226562 -19.109375 6.78125 -20.046875 C 8.332031 -20.992188 10.113281 -21.46875 12.125 -21.46875 C 14.132812 -21.46875 15.921875 -20.992188 17.484375 -20.046875 C 19.046875 -19.109375 20.269531 -17.828125 21.15625 -16.203125 C 22.050781 -14.578125 22.5 -12.722656 22.5 -10.640625 C 22.5 -8.523438 22.054688 -6.632812 21.171875 -4.96875 C 20.296875 -3.3125 19.078125 -2.003906 17.515625 -1.046875 C 15.953125 -0.0976562 14.15625 0.375 12.125 0.375 Z M 12.125 -2.484375 C 13.46875 -2.484375 14.671875 -2.835938 15.734375 -3.546875 C 16.804688 -4.253906 17.65625 -5.222656 18.28125 -6.453125 C 18.90625 -7.691406 19.21875 -9.085938 19.21875 -10.640625 C 19.21875 -12.140625 18.910156 -13.492188 18.296875 -14.703125 C 17.691406 -15.910156 16.851562 -16.863281 15.78125 -17.5625 C 14.71875 -18.257812 13.5 -18.609375 12.125 -18.609375 C 10.78125 -18.609375 9.570312 -18.265625 8.5 -17.578125 C 7.4375 -16.890625 6.597656 -15.941406 5.984375 -14.734375 C 5.378906 -13.523438 5.078125 -12.160156 5.078125 -10.640625 C 5.078125 -9.054688 5.382812 -7.648438 6 -6.421875 C 6.625 -5.191406 7.46875 -4.226562 8.53125 -3.53125 C 9.601562 -2.832031 10.800781 -2.484375 12.125 -2.484375 Z M 12.125 -2.484375 "/></g></g></g><g fill="#223d3c" fill-opacity="1"><g transform="translate(484.051766, 1047.471147)"><g><path d="M 10.140625 0 L 7.125 0 L 0.953125 -21.078125 L 4.421875 -21.078125 L 8.84375 -5.265625 L 14.140625 -21.078125 L 17.078125 -21.078125 L 22.375 -5.265625 L 26.84375 -21.078125 L 30.3125 -21.078125 L 24.0625 0 L 21.046875 0 L 15.625 -16.515625 Z M 10.140625 0 "/></g></g></g><g fill="#223d3c" fill-opacity="1"><g transform="translate(515.314596, 1047.471147)"><g/></g></g><g fill="#223d3c" fill-opacity="1"><g transform="translate(525.989709, 1047.471147)"><g><path d="M 5.953125 0 L 2.703125 0 L 2.703125 -21.078125 L 5.953125 -21.078125 L 5.953125 -17.796875 C 7.015625 -19.171875 8.035156 -20.125 9.015625 -20.65625 C 9.992188 -21.195312 11.054688 -21.46875 12.203125 -21.46875 C 13.546875 -21.46875 14.769531 -21.148438 15.875 -20.515625 C 16.976562 -19.878906 17.695312 -18.898438 18.03125 -17.578125 C 18.820312 -19.097656 19.804688 -20.125 20.984375 -20.65625 C 22.171875 -21.195312 23.410156 -21.46875 24.703125 -21.46875 C 27.085938 -21.46875 28.851562 -20.785156 30 -19.421875 C 31.144531 -18.066406 31.71875 -16.164062 31.71875 -13.71875 L 31.71875 0 L 28.484375 0 L 28.484375 -12.96875 C 28.484375 -14.789062 28.109375 -16.1875 27.359375 -17.15625 C 26.609375 -18.125 25.554688 -18.609375 24.203125 -18.609375 C 23.441406 -18.609375 22.78125 -18.476562 22.21875 -18.21875 C 21.664062 -17.96875 21.1875 -17.625 20.78125 -17.1875 C 20.039062 -16.40625 19.53125 -15.382812 19.25 -14.125 C 18.96875 -12.863281 18.828125 -11.332031 18.828125 -9.53125 L 18.828125 0 L 15.59375 0 L 15.59375 -12.96875 C 15.59375 -14.769531 15.195312 -16.160156 14.40625 -17.140625 C 13.625 -18.117188 12.582031 -18.609375 11.28125 -18.609375 C 10.570312 -18.609375 9.929688 -18.472656 9.359375 -18.203125 C 8.785156 -17.929688 8.285156 -17.554688 7.859375 -17.078125 C 7.222656 -16.367188 6.742188 -15.4375 6.421875 -14.28125 C 6.109375 -13.125 5.953125 -11.539062 5.953125 -9.53125 Z M 5.953125 0 "/></g></g></g><g fill="#223d3c" fill-opacity="1"><g transform="translate(560.264438, 1047.471147)"><g><path d="M 8.6875 0.375 C 6.582031 0.375 4.910156 -0.15625 3.671875 -1.21875 C 2.441406 -2.289062 1.828125 -3.753906 1.828125 -5.609375 C 1.828125 -7.429688 2.515625 -8.878906 3.890625 -9.953125 C 5.003906 -10.835938 6.617188 -11.5 8.734375 -11.9375 L 16.234375 -13.375 C 16.234375 -15.03125 15.800781 -16.289062 14.9375 -17.15625 C 13.976562 -18.125 12.6875 -18.609375 11.0625 -18.609375 C 9.757812 -18.609375 8.628906 -18.265625 7.671875 -17.578125 C 6.722656 -16.890625 6.125 -15.945312 5.875 -14.75 L 2.625 -14.75 C 2.882812 -16.226562 3.425781 -17.460938 4.25 -18.453125 C 5.070312 -19.441406 6.082031 -20.191406 7.28125 -20.703125 C 8.476562 -21.210938 9.75 -21.46875 11.09375 -21.46875 C 12.3125 -21.46875 13.460938 -21.285156 14.546875 -20.921875 C 15.628906 -20.566406 16.535156 -20.023438 17.265625 -19.296875 C 18.003906 -18.578125 18.523438 -17.773438 18.828125 -16.890625 C 19.140625 -16.003906 19.328125 -15.160156 19.390625 -14.359375 C 19.453125 -13.554688 19.484375 -12.910156 19.484375 -12.421875 L 19.484375 0 L 16.234375 0 L 16.234375 -3.3125 C 15.503906 -2.25 14.65625 -1.425781 13.6875 -0.84375 C 12.976562 -0.40625 12.207031 -0.09375 11.375 0.09375 C 10.550781 0.28125 9.65625 0.375 8.6875 0.375 Z M 9.078125 -2.484375 C 10.367188 -2.484375 11.484375 -2.722656 12.421875 -3.203125 C 13.921875 -3.992188 14.9375 -5.007812 15.46875 -6.25 C 16.007812 -7.5 16.28125 -9 16.28125 -10.75 L 9.421875 -9.375 C 7.835938 -9.070312 6.679688 -8.578125 5.953125 -7.890625 C 5.367188 -7.304688 5.078125 -6.570312 5.078125 -5.6875 C 5.078125 -4.71875 5.4375 -3.941406 6.15625 -3.359375 C 6.882812 -2.773438 7.859375 -2.484375 9.078125 -2.484375 Z M 9.078125 -2.484375 "/></g></g></g><g fill="#223d3c" fill-opacity="1"><g transform="translate(582.224666, 1047.471147)"><g><path d="M 12.890625 -21.46875 C 14.796875 -21.46875 16.445312 -21.003906 17.84375 -20.078125 C 19.238281 -19.148438 20.320312 -17.867188 21.09375 -16.234375 C 21.875 -14.609375 22.265625 -12.71875 22.265625 -10.5625 C 22.265625 -8.394531 21.875 -6.492188 21.09375 -4.859375 C 20.320312 -3.222656 19.238281 -1.941406 17.84375 -1.015625 C 16.445312 -0.0859375 14.796875 0.375 12.890625 0.375 C 11.492188 0.375 10.265625 0.113281 9.203125 -0.40625 C 8.148438 -0.925781 7.078125 -1.882812 5.984375 -3.28125 L 5.984375 8 L 2.75 8 L 2.75 -21.078125 L 5.984375 -21.078125 L 5.984375 -17.796875 C 7.054688 -19.171875 8.113281 -20.125 9.15625 -20.65625 C 10.195312 -21.195312 11.441406 -21.46875 12.890625 -21.46875 Z M 12.578125 -18.609375 C 11.285156 -18.609375 10.128906 -18.257812 9.109375 -17.5625 C 8.097656 -16.863281 7.304688 -15.910156 6.734375 -14.703125 C 6.160156 -13.492188 5.875 -12.113281 5.875 -10.5625 C 5.875 -9.007812 6.160156 -7.625 6.734375 -6.40625 C 7.304688 -5.1875 8.097656 -4.226562 9.109375 -3.53125 C 10.128906 -2.832031 11.285156 -2.484375 12.578125 -2.484375 C 13.898438 -2.484375 15.046875 -2.835938 16.015625 -3.546875 C 16.984375 -4.253906 17.726562 -5.21875 18.25 -6.4375 C 18.769531 -7.65625 19.03125 -9.03125 19.03125 -10.5625 C 19.03125 -12.082031 18.769531 -13.445312 18.25 -14.65625 C 17.726562 -15.863281 16.984375 -16.820312 16.015625 -17.53125 C 15.046875 -18.25 13.898438 -18.609375 12.578125 -18.609375 Z M 12.578125 -18.609375 "/></g></g></g></svg>